<?xml version="1.0" encoding="utf-8"?>
<!-- Generator: Adobe Illustrator 17.0.0, SVG Export Plug-In . SVG Version: 6.00 Build 0)  -->
<!DOCTYPE svg PUBLIC "-//W3C//DTD SVG 1.1//EN" "http://www.w3.org/Graphics/SVG/1.1/DTD/svg11.dtd">
<svg version="1.1" id="图层_1" xmlns="http://www.w3.org/2000/svg" xmlns:xlink="http://www.w3.org/1999/xlink" x="0px" y="0px"
	 width="48px" height="48px" viewBox="0 0 48 48" enable-background="new 0 0 48 48" xml:space="preserve">
<path fill="#14c682" d="M13.25,21.59c2.88,5.66,7.51,10.29,13.18,13.17l4.4-4.41c0.55-0.55,1.34-0.71,2.03-0.49
	C35.1,30.6,37.51,31,40,31c1.11,0,2,0.89,2,2v7c0,1.11-0.89,2-2,2C21.22,42,6,26.78,6,8c0-1.11,0.9-2,2-2h7c1.11,0,2,0.89,2,2
	c0,2.49,0.4,4.9,1.14,7.14c0.22,0.69,0.06,1.48-0.49,2.03L13.25,21.59z"/>
</svg>
