<?xml version="1.0" standalone="no"?>
<!DOCTYPE svg PUBLIC "-//W3C//DTD SVG 1.1//EN" "http://www.w3.org/Graphics/SVG/1.1/DTD/svg11.dtd" >
<svg xmlns="http://www.w3.org/2000/svg">
<metadata>
Created by FontForge 20120731 at Mon Oct 17 15:34:01 2016
 By admin
</metadata>
<defs>
<font id="iconfont" horiz-adv-x="1024" >
  <font-face 
    font-family="iconfont"
    font-weight="500"
    font-stretch="normal"
    units-per-em="1024"
    panose-1="2 0 6 3 0 0 0 0 0 0"
    ascent="896"
    descent="-128"
    x-height="792"
    bbox="-0.333333 -224 1032 895"
    underline-thickness="50"
    underline-position="-100"
    unicode-range="U+0078-E672"
  />
<missing-glyph horiz-adv-x="374" 
d="M34 0v682h272v-682h-272zM68 34h204v614h-204v-614z" />
    <glyph glyph-name=".notdef" horiz-adv-x="374" 
d="M34 0v682h272v-682h-272zM68 34h204v614h-204v-614z" />
    <glyph glyph-name=".null" horiz-adv-x="0" 
 />
    <glyph glyph-name="nonmarkingreturn" horiz-adv-x="341" 
 />
    <glyph glyph-name="x" unicode="x" horiz-adv-x="1001" 
d="M281 543q-27 -1 -53 -1h-83q-18 0 -36.5 -6t-32.5 -18.5t-23 -32t-9 -45.5v-76h912v41q0 16 -0.5 30t-0.5 18q0 13 -5 29t-17 29.5t-31.5 22.5t-49.5 9h-133v-97h-438v97zM955 310v-52q0 -23 0.5 -52t0.5 -58t-10.5 -47.5t-26 -30t-33 -16t-31.5 -4.5q-14 -1 -29.5 -0.5
t-29.5 0.5h-32l-45 128h-439l-44 -128h-29h-34q-20 0 -45 1q-25 0 -41 9.5t-25.5 23t-13.5 29.5t-4 30v167h911zM163 247q-12 0 -21 -8.5t-9 -21.5t9 -21.5t21 -8.5q13 0 22 8.5t9 21.5t-9 21.5t-22 8.5zM316 123q-8 -26 -14 -48q-5 -19 -10.5 -37t-7.5 -25t-3 -15t1 -14.5
t9.5 -10.5t21.5 -4h37h67h81h80h64h36q23 0 34 12t2 38q-5 13 -9.5 30.5t-9.5 34.5q-5 19 -11 39h-368zM336 498v228q0 11 2.5 23t10 21.5t20.5 15.5t34 6h188q31 0 51.5 -14.5t20.5 -52.5v-227h-327z" />
    <glyph glyph-name="uniE600" unicode="&#xe600;" horiz-adv-x="1000" 
d="M734 156q-14 -19 -33 -37l220 -216l36 34zM812 389q0 -104 -49 -190.5t-133.5 -135t-185.5 -48.5q-105 2 -189.5 52.5t-131.5 135.5t-47 186q0 97 49.5 180.5t134.5 132.5t184 49t184.5 -49.5t134.5 -133t49 -179.5zM442 702q-131 0 -224 -93t-93 -226t93 -226.5
t224 -93.5q86 0 160 43t117.5 116.5t43.5 160.5t-43.5 160.5t-117.5 116t-160 42.5z" />
    <glyph glyph-name="uniE601" unicode="&#xe601;" 
d="M840 657l-7 11h-613l-7 -9q-55 -71 -86 -134.5t-36.5 -110t-1.5 -77t16 -55.5q20 -41 58 -65.5t81 -24.5h5q86 3 146 65q53 -61 133 -61q83 0 136 64q81 -66 153 -66q62 0 105 50q26 30 32.5 72.5t-4.5 88.5t-25.5 87t-36.5 81.5t-31.5 57t-16.5 26.5zM244 240
q-27 0 -53.5 16.5t-42.5 47.5q-9 19 -12 44t2.5 64t32 93t73.5 115h563q17 -27 34 -59t34 -74t26 -79.5t6 -73.5t-21 -58q-29 -34 -69 -34q-27 0 -59.5 15.5t-48.5 28t-29 24.5v166h-48v-179q-39 -53 -104 -53q-29 0 -54.5 13t-36 23.5t-17.5 22.5v173h-48v-172
q-9 -12 -21.5 -23.5t-41.5 -25.5t-62 -15h-3zM804 -48q-10 -24 -28 -32h-496q-8 0 -14.5 2.5t-11.5 7t-9 9.5t-6 10t-4 9.5t-3 7.5v2v156h-48v-160q6 -32 30 -62t66 -30l506 1q6 1 14.5 5t25 20.5t25.5 41.5l1 188h-48v-176z" />
    <glyph glyph-name="uniE602" unicode="&#xe602;" 
d="M586.5 647q21.5 0 36.5 15t15 36.5t-15 37t-36.5 15.5t-36.5 -15.5t-15 -37t15 -36.5t36.5 -15zM717 376v-104h-95q-21 66 -70 121v25l13 72q1 0 2 1t4 3.5t6 3.5t6.5 -0.5t6.5 -5.5q0 -2 1 -6.5t11 -16t29 -21.5l51 -19q27 -10 33 5q10 23 -6 28l-45 25q-6 4 -15 11
t-23 28.5t-13 41.5q0 2 -1 5.5t-5 13t-9.5 17.5t-16 17t-23.5 13q-2 2 -6.5 4t-18.5 6t-25 -2l-120 -56q-18 -10 -18 -23v-119q-3 -23 13 -23q26 9 26 16l1 91q4 7 23 20l20 15l13 6q8 1 5 -11q-40 -60 -40 -96v-92l-83 -191q-3 -5 -5 -11h-45v-105h-209v-208h209v104h210
v104h209v105h210v208h-210zM508 272v-104h-95l63 121l13 23q10 12 18 5l40 -45h-39z" />
    <glyph glyph-name="uniE603" unicode="&#xe603;" 
d="M64 420h85l415 307v-741h-347v383h-60v-434h803v445l-331 224v230zM685 172v-190h-55v562l252 -164v-398h-52v190h-145zM781 -18h-47v155h47v-155zM382 156h49v-81h-49v81zM382 324h49v-134h-49v134zM382 490h49v-133h-49v133z" />
    <glyph glyph-name="uniE604" unicode="&#xe604;" 
d="M571.5 615q19.5 0 33.5 14t14 33.5t-14 33.5t-33.5 14t-33.5 -14t-14 -33.5t14 -33.5t33.5 -14zM858 375q-43 17 -85 -1q-17 -6 -31 -16l-142 -72q-20 54 -60 99v23l12 64l2 2q1 1 3.5 3t5.5 3t6 0t6 -5q0 -3 0.5 -6.5t10 -14t26.5 -20.5l46 -17q25 -9 30 5q9 20 -5 25
l-41 23q-6 4 -13.5 10.5t-20.5 25.5t-12 38q-1 2 -1.5 5t-4.5 11.5t-9 16t-14 15t-21 11.5q-2 2 -6 4t-17 5.5t-23 -2.5l-109 -50q-16 -9 -16 -21v-108q-3 -21 11 -21q24 8 24 15l1 82q3 7 21 18l19 14l11 5q7 1 5 -9q-37 -55 -37 -88v-83l-76 -174q-1 -2 -2.5 -4.5
t-4 -11.5t0.5 -14l-56 -29q-40 38 -95 38q-56 0 -96 -40t-40 -96.5t40 -96.5t96 -40q24 0 46 8q14 3 27 10l456 230q39 -35 92 -35q56 0 96 39.5t40 96.5q0 45 -27 81t-69 49zM422 197l49 93l12 21q9 12 16 5l47 -53q1 -1 1 -3z" />
    <glyph glyph-name="uniE605" unicode="&#xe605;" 
d="M524.5 433q17.5 0 29.5 11t12 27.5t-12 27.5t-29.5 11t-29 -11t-11.5 -27.5t11.5 -27.5t29 -11zM192 -127h89v860h-89v-860zM503 599h30v109l59 -41v29l-74 52l-74 -52v-29l59 41v-109zM326 36h385v534h-385v-534zM355 540h326v-474h-326v474zM755 733v-860h89v860h-89z
M578 420h-125q-18 2 -24 -13v-117q1 -12 13 -12q14 -1 14 12v71q8 16 14 -1v-251q0 -2 0.5 -4t3.5 -5.5t9 -3.5h15q13 0 13 13v117q0 6 8 6q6 -2 6 -7v-117q0 -2 0.5 -4t3.5 -5t9 -3h14q14 1 14 12v253q0 2 1.5 3.5t5 3.5t7.5 -6v-72q1 -1 0 -3.5t2.5 -6t11.5 -3.5q6 0 9 3
t3 6l1 3v118q-7 13 -29 13zM533 7h-30v-109l-59 41v-29l74 -51l74 51v29l-59 -41v109z" />
    <glyph glyph-name="uniE606" unicode="&#xe606;" 
d="M353.5 644q24.5 0 41.5 -17t17 -41.5t-17 -41.5t-41.5 -17t-41.5 17t-17 41.5t17 41.5t41.5 17zM841 694v-534q4 0 10 -1t21 -6.5t26.5 -13.5t21 -24.5t9.5 -37.5q0 -64 -69 -84l-19 -4v-91l92 -109h88v1022h-1018v-1022h326l-96 109v383h125q7 11 29 13q8 8 17.5 21
t15.5 21t9 8q4 0 10.5 -20.5t9.5 -42.5q2 -11 1 -20.5t-3 -15.5l-2 -5q-129 -232 -137 -246q-10 -19 -2.5 -40.5t31.5 -34.5q17 -8 32 -2.5t25 16.5l10 11q130 243 133 246q5 3 13 0q0 -1 3.5 -33t7.5 -65t5 -36q6 -10 17 -21q12 -12 25 -12h242q2 0 5 1t11 5t14 9.5t11 16
t5 22.5q0 23 -18 36.5t-28 13.5h-31h-57h-58h-29q0 3 -3.5 7.5t-9.5 4.5q0 2 -1 29t-3 54.5t-4 33.5q-1 3 -15 38t-25.5 64.5t-9.5 31.5q3 3 16 4q11 0 30 -13q2 -1 22.5 -32t22.5 -34q27 -32 34 -34l5 -1q4 -2 7.5 -2.5t9.5 -1t12 0.5t12 4q10 6 17.5 16.5t9.5 17.5l2 8
q1 18 -4 29q-4 9 -41 66t-43 63q-5 6 -13 11.5t-12 5.5h-246q-12 -11 -29 -12q-6 -5 -58 -63q-34 -31 -59 -38h-66v309h608zM529 -207q-74 88 -80 92q-14 11 -25 9q-5 -2 -20 -9t-21.5 -12.5t-11.5 -16t-5 -17.5q0 -22 4 -29q2 -3 7 -8t10 -9l4 -4h138v4zM3 811l1018 -1022z
M1021 811l-1018 -1022z" />
    <glyph glyph-name="uniE607" unicode="&#xe607;" 
d="M768 512q-14 0 -23 -9t-9 -23v-378q0 -18 -11.5 -28t-26.5 -10h-372q-18 0 -28 11.5t-10 26.5v378q0 14 -9 23t-23 9t-23 -9t-9 -23v-378q0 -43 29.5 -72.5t72.5 -29.5h365q43 0 73 29.5t30 72.5v378q4 14 -3.5 23t-22.5 9zM461 160v320q0 14 -8 23t-18 9
q-11 0 -24.5 -9.5t-13.5 -22.5v-320q0 -14 8.5 -23t23 -9t23.5 9t9 23zM627 160v320q0 14 -11.5 23t-26.5 9q-26 0 -26 -32v-320q0 -14 8 -23t18 -9q11 0 24.5 9.5t13.5 22.5zM832 640h-160v45q0 33 -25 58t-58 25h-154q-33 0 -58 -25t-25 -58v-45h-160q-14 0 -23 -9t-9 -23
t9 -23t23 -9h640q14 0 23 9t9 23t-9 23t-23 9zM416 685q0 19 19 19h154q19 0 19 -19v-45h-192v45z" />
    <glyph glyph-name="uniE608" unicode="&#xe608;" 
d="M508 802h4h4h-8zM896 654q-4 20 -14 35.5t-28 27.5t-32 19t-40 18q-41 17 -122.5 32.5t-147.5 15.5t-147.5 -15.5t-122.5 -32.5q-26 -11 -40 -18t-32 -19t-28 -27.5t-14 -35.5l-26 -307v-422h69v-67q0 -23 11.5 -38.5t28.5 -19t33.5 0t28 19t11.5 38.5v67h456v-67
q0 -23 11.5 -38.5t28 -19t33.5 0t28.5 19t11.5 38.5v67h69v422zM343 725h338q15 0 21.5 -12.5t0 -25t-21.5 -12.5h-338q-15 0 -21.5 12.5t0 25t21.5 12.5zM174 357l31 223q4 23 14 34t35 11h516q25 0 35 -11t14 -34l31 -223q5 -42 -33 -42h-610q-39 0 -33 42zM300 94
q0 -9 -7 -16t-17 -7h-93q-9 0 -16 7t-7 16v40q0 9 7 16t16 7h93q10 0 17 -7t7 -16v-40zM864 94q0 -9 -7 -16t-16 -7h-94q-9 0 -16 7t-7 16v40q0 9 7 16t16 7h94q9 0 16 -7t7 -16v-40z" />
    <glyph glyph-name="uniE609" unicode="&#xe609;" 
d="M928 71q-13 0 -23 9l-393 393l-393 -393q-10 -9 -23 -9t-22.5 9t-9.5 22.5t9 22.5l416 416q10 10 23 10t23 -10l416 -416q9 -9 9 -22.5t-9.5 -22.5t-22.5 -9z" />
    <glyph glyph-name="uniE60A" unicode="&#xe60a;" 
d="M292 723v-45q56 0 104.5 -37.5t76.5 -105.5l41 -96l41 97q28 65 76.5 102t106.5 37q32 0 63 -14t56.5 -40.5t41.5 -71.5t16 -101q0 -25 -14.5 -55.5t-44.5 -66t-58 -65.5t-72 -69t-68 -59t-64 -54q-59 -49 -80 -67q-19 17 -74 62q-41 33 -65.5 53.5t-69 60t-73 69.5
t-59 66t-45 67t-14.5 56q0 58 16 103.5t41.5 73t56.5 41.5t64 14v45zM292 723q-91 0 -156.5 -74t-66.5 -202q0 -43 32 -97t80.5 -104t105.5 -101.5t106.5 -90.5t84 -69t37.5 -40q2 10 36.5 41t84 70t106.5 90.5t105.5 101.5t80.5 104t31 96q0 127 -65.5 199t-155.5 72
q-68 0 -128.5 -42.5t-95.5 -123.5q-35 83 -95 126.5t-127 43.5z" />
    <glyph glyph-name="uniE60B" unicode="&#xe60b;" 
d="M512 720q-91 0 -168.5 -45t-122.5 -122.5t-45 -168.5t45 -168.5t122.5 -122.5t168.5 -45t168.5 45t122.5 122.5t45 168.5t-45 168.5t-122.5 122.5t-168.5 45zM512 83q-124 0 -212.5 88.5t-88.5 212.5t88.5 212.5t212.5 88.5t212.5 -88.5t88.5 -212.5t-88.5 -212.5
t-212.5 -88.5z" />
    <glyph glyph-name="uniE60C" unicode="&#xe60c;" 
d="M860 383q-8 0 -13.5 -5.5t-5.5 -13.5v-339q0 -16 -11 -27t-27 -11h-574q-16 0 -27 11t-11 27v553q0 16 11 27.5t27 11.5h370q8 0 13.5 5.5t5.5 13.5t-5.5 13.5t-13.5 5.5h-374q-30 0 -51 -21.5t-21 -51.5v-561q0 -30 21 -51t51 -21h582q30 0 51 21t21 51v343
q0 8 -5.5 13.5t-13.5 5.5v0zM505 138l363 364q17 16 15.5 40.5t-19.5 42.5l-34 34q-18 18 -42.5 19.5t-40.5 -14.5l-364 -364zM774 597q6 6 15 5.5t16 -7.5l35 -34q6 -7 6.5 -16.5t-5.5 -15.5l-40 -40l-67 68zM772 460l-270 -270l-68 67l271 271zM383 259l-38 -137
q-2 -9 5 -16t17 -5l137 38l-28 28l-89 -25l24 89z" />
    <glyph glyph-name="uniE60D" unicode="&#xe60d;" 
d="M512 730q-94 0 -174 -46t-126 -126t-46 -174t46 -174t126 -126t174 -46t174 46t126 126t46 174t-46 174t-126 126t-174 46zM732 164q-43 -43 -99 -66q-58 -25 -121 -25t-121 25q-56 23 -99 66t-66 99q-25 58 -25 121t25 121q23 56 66 99t99 66q58 25 121 25t121 -25
q56 -23 99 -66t66 -99q25 -58 25 -121t-25 -121q-23 -56 -66 -99zM355 384q0 -65 46 -110.5t111 -45.5t110.5 45.5t45.5 110.5t-45.5 111t-110.5 46t-111 -46t-46 -111z" />
    <glyph glyph-name="uniE60E" unicode="&#xe60e;" 
d="M712 286q-10 0 -17 -7t-7 -17l-2 -174l-371 1l1 372h173q10 0 17 7t7 17t-7 17t-17 7h-173q-20 0 -35 -14.5t-15 -35.5v-370q0 -20 15 -35t35 -15h370q21 0 35.5 15t14.5 35v173q0 10 -7 17t-17 7zM758 581h-172h-26h-22q-10 0 -17 -7t-7 -17.5t7 -17.5t17 -7h48l135 -1
l-195 -195l-5 -6q-7 -7 -7 -17t7 -17t17 -7t18 7l5 5l198 197l-1 -150v-36q0 -11 7.5 -18t17.5 -7t17.5 7t7.5 18v36v183q0 21 -14.5 35.5t-35.5 14.5z" />
    <glyph glyph-name="uniE60F" unicode="&#xe60f;" 
d="M910.5 404.5q-2.5 7.5 -10.5 7.5l-260 23l-102 241q-3 7 -11 7t-11 -7l-102 -241l-260 -23q-8 0 -10.5 -7.5t3.5 -12.5l198 -172l-60 -254q-1 -8 5 -12.5t13 -0.5l224 135l224 -135q2 -2 6 -2t7 3q6 4 4 12l-59 254l198 172q6 5 3.5 12.5zM839 373l-162 -140l48 -209
q2 -6 -4 -10q-2 -2 -5 -2t-5 1l-184 111l-183 -111q-6 -3 -11 1t-4 10l49 209l-162 140q-5 4 -3 10t8 7l214 18l83 198q3 6 9.5 6t8.5 -6l84 -198l213 -18q6 -1 8 -7t-2 -10z" />
    <glyph glyph-name="uniE610" unicode="&#xe610;" 
d="M512 -1l-11 11q-67 68 -135 153q-136 173 -136 262q0 108 83 183q82 75 198.5 75t198.5 -75q84 -75 84 -183q0 -89 -137 -262q-68 -85 -134 -153zM512 653q-104 0 -178 -67t-74 -161q0 -78 130 -242q56 -71 122 -140q65 69 121 140q130 164 130 242q0 94 -73.5 161
t-177.5 67zM511.5 324q-40.5 0 -69 29t-28.5 69t28.5 68.5t69 28.5t69 -28.5t28.5 -68.5t-28.5 -69t-69 -29zM511.5 489q-27.5 0 -47 -20t-19.5 -47.5t19.5 -47t47 -19.5t47 19.5t19.5 47t-19.5 47.5t-47 20zM678 72l-25 -24q26 -16 26 -33q0 -24 -50 -44.5t-120 -20.5
t-119.5 20.5t-49.5 44.5q0 18 29 36l-22 25q-41 -26 -41 -61q0 -42 58 -70t145 -28t145 28t58 70q0 32 -34 57z" />
    <glyph glyph-name="uniE611" unicode="&#xe611;" 
d="M496 583q0 21 16 21t16 -21v-266h171q8 0 13.5 -4.5t5.5 -12.5q0 -7 -6 -11t-13 -4h-203v298zM512 -82q-78 0 -149 30q-69 29 -122 82t-82 122q-30 71 -30 148.5t30 148.5q29 69 82 122t122 82q71 30 149 30t149 -30q68 -29 121 -82t82 -122q30 -71 30 -148.5t-30 -148.5
q-29 -69 -82 -122t-121 -82q-71 -30 -149 -30zM511.5 652q-95.5 0 -176.5 -47t-128 -128t-47 -176.5t47 -176.5t128 -128t176.5 -47t176.5 47t128.5 128t47.5 176.5t-47.5 176.5t-128.5 128t-176.5 47z" />
    <glyph glyph-name="uniE612" unicode="&#xe612;" horiz-adv-x="1025" 
d="M946 812h-897q-18 0 -34.5 -29t-14.5 -35v-884q0 -48 35 -48q20 0 35.5 14t15.5 34v766l17 18l848 -847q12 -13 30 -13t30.5 12.5t12.5 30.5t-12 30l-850 850l15 15h769q20 0 34.5 14.5t14.5 34.5q0 37 -49 37z" />
    <glyph glyph-name="uniE613" unicode="&#xe613;" 
d="M548 659q88 0 162.5 -43t117.5 -117.5t43 -162.5q0 -7 5.5 -12.5t13 -5.5t12.5 5.5t5 12.5q0 98 -48 180.5t-130.5 130.5t-180.5 48q-7 0 -12.5 -5t-5.5 -12.5t5.5 -13t12.5 -5.5zM548 480q60 0 102 -42.5t42 -101.5q0 -8 5 -13t12.5 -5t13 5t5.5 13q0 74 -53 127
t-127 53q-7 0 -12.5 -5.5t-5.5 -13t5.5 -12.5t12.5 -5zM548 300q15 0 25.5 10.5t10.5 25.5t-10.5 25.5t-25.5 10.5t-25.5 -10.5t-10.5 -25.5t10.5 -25.5t25.5 -10.5zM907 67q0 22 -16 38q-4 4 -9 7l-153 119q-16 15 -38 15q-17 0 -32 -11l-42 -42h-1q-10 -12 -26 -12
q-19 0 -30 15v-1q-90 65 -154 152v1h2q-16 11 -16 30q0 17 13 27l42 42q11 15 11 33q0 22 -16 38l-118 152q-4 6 -8 10q-15 15 -38 15q-57 0 -109 -56.5t-52 -131.5q0 -42 18 -81l-1 -1q81 -161 211.5 -291.5t291.5 -211.5l1 1q38 -18 81 -18q74 0 131 52t57 109v1v0z
M719 -59q-34 0 -66 14q-3 2 -6 3q-153 78 -276 201t-202 276q0 4 -2 6q-14 32 -14 66q0 61 42 106.5t83 45.5q8 0 13 -5q1 -1 2 -3q1 -1 2 -3l119 -152q1 -1 3 -4q5 -5 5 -12q0 -5 -3 -9l-40 -40v-1q-23 -21 -23 -52q0 -29 20 -49q1 -2 1 -3q67 -92 161 -160h2v-1
q21 -20 50 -20t50 20l2 2l40 41q4 2 9 2q8 0 13 -5l3 -3l152 -118q2 -1 3.5 -2t3.5 -3q5 -5 5 -12v-4q-2 -41 -47.5 -81.5t-104.5 -40.5z" />
    <glyph glyph-name="uniE614" unicode="&#xe614;" 
d="M331.5 127.5q6.5 -6.5 16 -6.5t16.5 7l149 149l149 -149q6 -7 16 -7t16.5 6.5t6.5 16t-7 16.5l-149 149l149 149q7 7 7 16.5t-6.5 16t-16.5 6.5t-16 -6l-149 -149l-149 149q-7 6 -16.5 6t-16 -6.5t-6.5 -16t6 -16.5l149 -149l-149 -149q-6 -7 -6 -16.5t6.5 -16zM949 302
q0 89 -34.5 169.5t-93 139t-139 93t-169.5 34.5t-170 -34.5t-139.5 -93t-93 -139t-34.5 -169.5t34.5 -170t93 -139.5t139.5 -93t170 -34.5q145 0 263 89q5 6 5 13q0 8 -6 13.5t-14 5.5t-14 -6q-105 -77 -234 -77q-107 0 -198 53t-144 144t-53 198.5t53 198.5t144 144
t198.5 53t198.5 -53t143.5 -144t52.5 -198q0 -100 -44 -185q-1 -4 -1 -6q0 -8 5.5 -13.5t13.5 -5.5q13 0 18 13v-1q49 96 49 201z" />
    <glyph glyph-name="uniE615" unicode="&#xe615;" 
d="M543 680l-80 -99h122l6 -294h-188h-2h-2h-2q-1 0 -2 -1h-1h-1l-1 -1h-2h-1q-1 -1 -2 -1h-1v-1q-1 0 -2 -1h-2l-2 -2l-1 -1l-1 -1q-1 0 -2 -1l-1 -1q-1 -1 -1 -2q-1 -1 -2 -1l-1 -2q-1 -1 -1 -1.5t-1 -1.5l-1 -1q-1 -1 -1 -2l-1 -1v-1v-2q-1 0 -1 -1t-1 -2v-2v-2h-1v-2v-2
v-1v-1l-7 -392q0 -17 11.5 -28.5t27.5 -12.5q17 0 29 12q11 11 11 27l6 354h191h1h1h2q1 0 2 0.5t2 0.5h2v1h2h2q1 1 1.5 1t1.5 1l2 1l2 1h1v1q1 0 2 1l1 1q1 1 3 2v0q1 2 2 3l1 1l1 1q0 1 1 1v2l1 1q1 1 1 2l1 2q0 1 1 1v1v1q0 1 1 1v2l1 2v2v2v2v1v1l-7 333h119l-160 198z
" />
    <glyph glyph-name="uniE616" unicode="&#xe616;" 
d="M884 -145h-182q-10 0 -16.5 6.5t-6.5 16t6.5 16.5t16.5 7h182q13 0 22.5 9.5t9.5 22.5v182q0 10 7 16.5t16.5 6.5t16 -6.5t6.5 -16.5v-182q0 -32 -23 -55t-55 -23zM322 -145h-183q-32 0 -55 23t-23 55v182q0 9 7 16t16.5 7t16 -7t6.5 -16v-182q0 -14 9.5 -23.5t23.5 -9.5
h182q9 0 15.5 -6.5t6.5 -16t-6.5 -16t-15.5 -6.5zM940 283h-856q-9 0 -16 6.5t-7 16t7 16t16 6.5h856q9 0 16 -6.5t7 -16t-7 -16t-16 -6.5zM939.5 462q-9.5 0 -16.5 7t-7 16v182q0 14 -9.5 23.5t-22.5 9.5h-182q-10 0 -16.5 6.5t-6.5 16t6.5 16t16.5 6.5h182q32 0 55 -23
t23 -55v-182q0 -10 -6.5 -16.5t-16 -6.5zM84.5 462q-9.5 0 -16.5 6.5t-7 16.5v182q0 32 23 55t55 23h183q9 0 15.5 -6.5t6.5 -16t-6.5 -16.5t-15.5 -7h-183q-13 0 -22.5 -9.5t-9.5 -22.5v-182q0 -10 -6.5 -16.5t-16 -6.5z" />
    <glyph glyph-name="uniE617" unicode="&#xe617;" 
d="M509 -201q-101 0 -193.5 39.5t-159.5 106.5t-106.5 159.5t-39.5 193.5t39.5 193.5t106.5 159t159.5 106.5t193.5 40t193.5 -40t159.5 -106.5t106.5 -159t39.5 -193.5t-39.5 -193.5t-106.5 -159.5t-159.5 -106.5t-193.5 -39.5zM509 770q-96 0 -183.5 -37.5t-150.5 -100.5
t-100.5 -150.5t-37.5 -183.5t37.5 -183.5t100.5 -151t150.5 -100.5t183.5 -37t183.5 37t150.5 100.5t100.5 151t37.5 183.5t-37.5 183.5t-100.5 150.5t-150.5 100.5t-183.5 37.5zM388 27l-19 18l254 255l-256 257l18 19l276 -276z" />
    <glyph glyph-name="uniE618" unicode="&#xe618;" 
d="M511 273q-22 0 -38 -15.5t-16 -37.5q0 -24 18 -40v-49q0 -15 10.5 -25.5t25.5 -10.5t25 10.5t10 25.5v49q18 16 18 40q0 22 -15.5 37.5t-37.5 15.5zM760 433h-35v89q0 89 -63 151.5t-151.5 62.5t-151 -62.5t-62.5 -151.5v-89h-35q-37 0 -63 -26t-26 -63v-338
q0 -37 26 -63t63 -26h498q37 0 63 26t26 63v338q0 37 -26 63t-63 26zM511 700q74 0 126 -52t52 -126v-89h-356v89q0 74 52 126t126 52zM814 6q0 -22 -16 -37.5t-38 -15.5h-498q-22 0 -38 15.5t-16 37.5v338q0 23 16 38.5t38 15.5h498q22 0 38 -15.5t16 -38.5v-338zM814 6z
" />
    <glyph glyph-name="uniE619" unicode="&#xe619;" 
d="M287 301l435 434q6 7 15.5 7t16.5 -7t7 -16.5t-7 -15.5l-418 -418l414 -414q7 -7 7 -16.5t-6.5 -16.5t-16 -7t-16.5 7l-431 430q-6 7 -6 16.5t6 16.5z" />
    <glyph glyph-name="uniE61A" unicode="&#xe61a;" 
d="M754 301l-434 434q-7 7 -16.5 7t-16 -7t-6.5 -16.5t6 -15.5l418 -418l-414 -414q-7 -7 -7 -16.5t7 -16.5t16.5 -7t16.5 7l430 430q7 7 7 16.5t-7 16.5z" />
    <glyph glyph-name="uniE61B" unicode="&#xe61b;" 
d="M954 480.5q-9 9.5 -22 9.5t-23 -9l-230 -231l-124 125q-9 9 -22 9t-22.5 -9t-9.5 -22t9 -22l147 -147q9 -9 22 -9t23 9l252 252q9 9 9 22t-9 22.5zM409 406h-189q-13 0 -22 -9.5t-9 -22.5t9 -22t22 -9h189q13 0 22.5 9t9.5 22t-9.5 22.5t-22.5 9.5zM409 259h-189
q-13 0 -22 -9.5t-9 -22.5t9 -22t22 -9h189q13 0 22.5 9t9.5 22t-9.5 22.5t-22.5 9.5zM682 122q-13 0 -22 -9t-9 -22v-42q0 -26 -8 -34t-34 -8h-441q-26 0 -34 8t-8 34v504q0 26 8 34t34 8h441q26 0 34 -8t8 -34v-105v-1q0 -13 9 -22t22 -9t22.5 9t9.5 22v1v147
q0 26 -18.5 44.5t-44.5 18.5h-525q-26 0 -44.5 -18.5t-18.5 -44.5v-588q0 -26 18.5 -44.5t44.5 -18.5h525q26 0 44.5 18.5t18.5 44.5v84q0 13 -9.5 22t-22.5 9z" />
    <glyph glyph-name="uniE61C" unicode="&#xe61c;" 
d="M895 151q9 0 15 6.5t6 15.5v284q0 35 -24 59.5t-58 24.5h-94q-26 86 -87.5 138t-145.5 52t-146 -52t-88 -138h-94q-34 0 -58 -24.5t-24 -59.5v-507q0 -34 24 -59t58 -25h655q34 0 58 25t24 59v24q0 9 -6 15.5t-15 6.5t-15.5 -6.5t-6.5 -15.5v0v-19q0 -19 -12.5 -31.5
t-30.5 -12.5h-412h-235q-18 0 -30.5 12.5t-12.5 31.5v498q0 18 12.5 31t30.5 13h79q-6 -35 -6 -69q0 -26 4 -53q-27 -14 -27 -45q0 -21 14.5 -36t35 -15t35 15t14.5 36q0 30 -26 44q-4 29 -4 54q0 35 7 69h396q7 -34 7 -69q0 -26 -5 -54q-25 -15 -25 -44q0 -21 14.5 -36
t35 -15t35 15t14.5 36q0 31 -28 45q4 28 4 53q0 34 -6 69h79q18 0 30.5 -13t12.5 -31v-280q0 -9 6.5 -15.5t15.5 -6.5zM321 541q24 64 72.5 101.5t113.5 37.5t113 -37.5t72 -101.5h-371z" />
    <glyph glyph-name="uniE61D" unicode="&#xe61d;" 
d="M65 647h896v-33h-896v33zM65 308h896v-33h-896v33zM65 -32h896v-32h-896v32z" />
    <glyph glyph-name="uniE61E" unicode="&#xe61e;" 
d="M816 535q-6 -6 -6 -14.5t6 -14.5t14.5 -6t14.5 6l60 59q30 30 30 72.5t-30 72.5t-72.5 30t-72.5 -30l-52 -51h-253q-9 0 -15 -6l-320 -320q-24 -24 -24 -58.5t24 -58.5l291 -290q24 -24 58 -24t58 24l320 320q6 6 6 14v147q0 8 -6 14t-14.5 6t-14.5 -6t-6 -14v-138
l-314 -314q-12 -12 -29 -12t-29 12l-291 290q-12 12 -12 29.5t12 29.5l314 314h204l-20 -21q-31 -30 -30.5 -72.5t30.5 -73.5q1 0 1 -1q6 -5 14 -5t14 6t6.5 14.5t-5.5 14.5l-2 2q-18 18 -17.5 43t17.5 43l113 113q18 18 44 18t44 -18t18 -43.5t-18 -43.5z" />
    <glyph glyph-name="uniE61F" unicode="&#xe61f;" 
d="M937 683l-183 42q-6 2 -11 -1l-219 -100l-201 84q-7 3 -14 0l-211 -82q-12 -5 -12 -17v-580q0 -10 8 -15.5t17 -1.5l205 80l202 -85q3 -1 7 -1t7 2l30 13q47 -94 114 -196q5 -8 15 -8t15 8q100 151 144 261l78 -18q9 -2 16 3.5t7 13.5v581q0 14 -14 17zM691 -131
q-54 85 -100 175.5t-46 132.5q0 60 43 103t103.5 43t103.5 -43t43 -103q0 -42 -46.5 -132.5t-100.5 -175.5zM914 108l-51 12q11 35 11 57q0 75 -53.5 129t-129.5 54t-129.5 -54t-53.5 -129q0 -41 38 -123l-22 -10l-201 84q-4 2 -7 2q-4 0 -7 -2l-186 -72v540l193 76l202 -85
q7 -3 14 1l220 100l162 -37v-543zM315.5 598q-7.5 0 -13 -5.5t-5.5 -12.5v-368q0 -8 5.5 -13.5t13 -5.5t13 5.5t5.5 13.5v368q0 7 -5.5 12.5t-13 5.5zM524.5 527q-7.5 0 -13 -5.5t-5.5 -12.5v-141q0 -7 5.5 -12.5t13 -5.5t13 5.5t5.5 12.5v141q0 7 -5.5 12.5t-13 5.5z
M736 606v-186q0 -8 5.5 -13t13 -5t13 5t5.5 13v186q0 8 -5.5 13t-13 5t-13 -5t-5.5 -13zM691 266q-28 0 -48 -20t-20 -48t20 -48t48 -20t48.5 20t20.5 48t-20.5 48t-48.5 20zM691 166q-13 0 -22.5 9.5t-9.5 22.5t9.5 22.5t22.5 9.5t22.5 -9.5t9.5 -22.5t-9.5 -22.5
t-22.5 -9.5z" />
    <glyph glyph-name="uniE620" unicode="&#xe620;" 
d="M630 350.5q0 -19.5 14 -34t34 -14.5t34 14.5t14 34t-14 33.5t-34 14t-34 -14t-14 -33.5zM942 614q0 30 -21 51t-51 21h-719q-30 0 -51 -21t-21 -51v-527q0 -30 21 -51t51 -21h263l96 -96l96 96h264q30 0 51 21t21 51v86h-1q0 9 -7 15.5t-16.5 6.5t-16 -6.5t-7.5 -15.5
v-62q0 -20 -14 -34t-34 -14h-264l-72 -72l-72 72h-263q-20 0 -34 14t-14 34v479q0 20 14 34t34 14h671q20 0 34 -14t14 -34v-228v-1v-1q0 -10 7 -17t17 -7t17 7t7 17v1l-1 1h1v252zM294 350.5q0 -19.5 14.5 -34t34 -14.5t33.5 14.5t14 34t-14 33.5t-33.5 14t-34 -14
t-14.5 -33.5zM462 350.5q0 -19.5 14 -34t34 -14.5t34 14.5t14 34t-14 33.5t-34 14t-34 -14t-14 -33.5z" />
    <glyph glyph-name="uniE621" unicode="&#xe621;" 
d="M513.5 727q-115.5 0 -214 -57t-155.5 -155t-57 -214t57 -214.5t155.5 -155.5t214 -57t214 57t155.5 155.5t57 214.5t-57 214t-155.5 155t-214 57zM513.5 -92q-106.5 0 -197 52.5t-143 143t-52.5 197t52.5 197t143 143t197 52.5t197 -52.5t143 -143t52.5 -197t-52.5 -197
t-143 -143t-197 -52.5zM727 453l-274 -266l-96 96q-8 8 -18.5 8t-18 -7.5t-7.5 -18t8 -18.5l113 -114q8 -7 19 -7q10 0 17 7l292 283q8 8 8 18.5t-7 18t-18 7.5t-18 -7z" />
    <glyph glyph-name="uniE622" unicode="&#xe622;" 
d="M964 492q-37 88 -104.5 155.5t-155.5 104.5q-91 39 -191 39t-191 -39q-88 -37 -155.5 -104.5t-104.5 -155.5q-39 -91 -39 -191t39 -191q37 -87 104.5 -155t155.5 -105q91 -39 191 -39t191 39q88 37 155.5 105t104.5 155q39 91 39 191t-39 191zM927 126
q-34 -80 -96.5 -142t-142.5 -96q-84 -36 -175 -36t-175 36q-80 34 -142.5 96t-96.5 142q-35 84 -35 175t35 175q35 80 97 142.5t142 96.5q84 35 175 35t175 -35q80 -34 142.5 -96.5t96.5 -142.5q35 -84 35 -175t-35 -175zM795 167q-27 -38 -76 -76q-42 -33 -88 -52
q-58 -24 -118 -24t-118 24q-46 19 -88 52q-49 38 -76 76q-5 7 -3.5 15t8.5 13t15 3.5t13 -7.5q5 -8 18 -22q24 -25 51 -46q38 -30 78 -46q50 -21 102 -21t102 21q40 16 78 46q44 33 69 68q5 6 13 7.5t15 -3.5t8.5 -13t-3.5 -15zM737 362.5q0 -25.5 -17.5 -43.5t-43 -18
t-43.5 18t-18 43.5t18 43.5t43.5 18t43 -18t17.5 -43.5zM411 362.5q0 -25.5 -18 -43.5t-43.5 -18t-43 18t-17.5 43.5t17.5 43.5t43 18t43.5 -18t18 -43.5z" />
    <glyph glyph-name="uniE623" unicode="&#xe623;" 
d="M840 486l-38 -6q-15 74 -34 99q-15 21 -37 28t-86 7h-91v-555q0 -25 1 -38.5t5.5 -26.5t11.5 -19t22 -11t33 -6.5t49 -3.5v-35h-326v35q30 2 47 3.5t32.5 6.5t22.5 11t12.5 18t6.5 27t1 39v555h-86q-65 0 -90.5 -7t-36.5 -27q-14 -21 -36 -100h-37q1 20 6.5 89t6.5 105
h25q5 -7 9.5 -11.5t12 -6t10.5 -2t15.5 0t16.5 0.5h458q20 0 26 0.5t13.5 4.5t15.5 14h27q0 -70 12 -188z" />
    <glyph glyph-name="uniE624" unicode="&#xe624;" 
d="M1024 300q0 -97 -35.5 -187t-101.5 -162h-1l-24 -24q-6 -5 -14 -5.5t-14 5.5q-31 27 -114 60q-28 11 -42 17.5t-34 17.5t-32 24.5t-18 30.5q-1 3 -1 6q-3 26 -2 69v19q0 12 10 18q8 5 20.5 31.5t15.5 52.5q1 7 6 12t13 6q2 0 4.5 3t6.5 12.5t6 24.5q2 17 -6 22
q-14 9 -9 24q15 45 19 92q5 65 -17 100q-18 30 -59 35q-10 2 -15 10q-14 26 -76 26q-93 -2 -132 -52q-25 -34 -27 -89q-3 -53 15 -123q4 -15 -9 -23q-8 -6 -6 -22q2 -15 6 -24.5t6.5 -12.5t4.5 -3q8 -1 13 -6t6 -12q3 -26 16 -52.5t21 -31.5q10 -6 10 -18v-19q1 -43 -2 -69
q0 -3 -1 -6q-6 -17 -18 -30.5t-32 -24.5t-34.5 -17.5t-41.5 -17.5q-31 -12 -46 -19q-8 -3 -16 0t-11.5 10.5t-0.5 15.5t11 11q16 8 48 20q31 12 46.5 19t32.5 19.5t23 25.5q2 24 2 62q0 4 -1 10q-14 14 -26.5 41t-18.5 53q-10 5 -18 15q-15 20 -19 56q-4 31 13 51
q-38 157 22 236q50 66 164 68q76 0 106 -38q53 -10 79 -53q19 -31 22 -77.5t-2.5 -76.5t-13.5 -59q16 -21 12 -51q-4 -36 -19 -56q-8 -10 -18 -15q-6 -28 -19 -56q-13 -25 -25 -38v-10q-1 -39 1 -62q9 -19 32.5 -32.5t69.5 -31.5q78 -31 112 -56l10 11q61 65 93.5 148
t32.5 172q0 96 -37 183q-36 85 -101 150t-150 101q-87 37 -183 37t-183 -37q-85 -36 -150 -101t-101 -150q-37 -87 -37 -183t37 -183q36 -85 101 -150t150 -101q87 -37 183 -37q122 0 229 59q7 4 15 2t12.5 -9.5t2 -16t-9.5 -12.5q-116 -64 -249 -64q-104 0 -199 40
q-92 39 -163 110t-110 163q-40 95 -40 199t40 199q39 92 110 163t163 110q95 40 199 40t199 -40q92 -39 163 -110t110 -163q40 -95 40 -199z" />
    <glyph glyph-name="uniE625" unicode="&#xe625;" 
d="M802 526.5q0 -25.5 -18 -43.5t-43.5 -18t-43.5 18t-18 43.5t18 43.5t43.5 18t43.5 -18t18 -43.5zM983 163v543h-942v-779h942v44l-287 300l-87 -87l-62 -62q-6 -6 -14.5 -6t-14.5 6t-6 14.5t6 14.5l48 48l-198 216l-227 -213q-6 -6 -14.5 -6t-14.5 6.5t-5.5 15t6.5 13.5
l242 228q6 6 14.5 5.5t14.5 -6.5l211 -230l87 87q6 6 14.5 6t14.5 -6l307 -321q6 -6 6 -14v-73q0 -9 -6 -15t-14 -6h-984q-8 0 -14 6t-6 15v819q0 9 6 15t14 6h984q8 0 14 -6t6 -15v-563q0 -9 -6 -15t-14.5 -6t-14.5 6t-6 15z" />
    <glyph glyph-name="uniE626" unicode="&#xe626;" 
d="M1005 300q0 -29 -22.5 -67.5t-67.5 -78.5t-103.5 -74t-137.5 -56t-162 -22q-81 0 -159.5 21.5t-137 55.5t-104 74t-69 78.5t-23.5 68.5t23.5 68.5t69 78.5t104.5 74t137 55t159 21q84 0 163 -21t137.5 -55t103 -74t67.5 -78.5t22 -68.5zM512.5 543q-98.5 0 -168 -71
t-69.5 -172t69.5 -172t168 -71t168 71t69.5 172t-69.5 172t-168 71zM512 455q-63 0 -107 -45.5t-44 -109.5t44 -109.5t107 -45.5t107 45.5t44 109.5t-44 109.5t-107 45.5z" />
    <glyph glyph-name="uniE627" unicode="&#xe627;" 
d="M128 332h768v-64h-768v64z" />
    <glyph glyph-name="uniE628" unicode="&#xe628;" 
d="M699 733h-82h-159h-80q-43 0 -75 -30t-32 -71v-7l-31 -1q-42 0 -72.5 -32.5t-30.5 -74.5v-541q0 -42 32.5 -75.5t74.5 -33.5h401q43 0 75 30t32 72v7h27q42 0 74.5 33t32.5 75v392v40zM699 678l134 -162h-81q-20 0 -36.5 29t-16.5 52v81zM699 -29q0 -22 -16.5 -42.5
t-37.5 -20.5h-401q-21 0 -43.5 23.5t-22.5 44.5v541q0 21 21.5 43.5t41.5 22.5l30 1v-500q0 -42 32.5 -75t74.5 -33h321v-5zM846 84q0 -21 -23 -44t-44 -23h-414q-20 0 -37 22.5t-17 44.5v541q0 22 17 44.5t37 22.5h293v-122q0 -42 26 -68t68 -26h94v-392zM699 354h-241
q-11 0 -19 -8t-8 -19t8 -19t19 -8h241q11 0 19 8t8 19t-8 19t-19 8zM699 219h-241q-11 0 -19 -8t-8 -19t8 -19t19 -8h241q11 0 19 8t8 19t-8 19t-19 8z" />
    <glyph glyph-name="uniE629" unicode="&#xe629;" 
d="M980.5 516.5q-10.5 8.5 -23.5 7.5t-22 -12q-8 -10 -26 -26q-37 -34 -82 -63q-144 -91 -315 -91t-315 91q-45 29 -82 63q-18 16 -26 26q-9 11 -22 12t-23.5 -7.5t-11.5 -21.5t7 -23q12 -14 33 -34q41 -38 91 -69q28 -18 59 -33q-9 -13 -23 -24q-11 -9 -23 -16
q-6 -4 -13 -7q-22 -11 -49 -17q-13 -3 -21 -4q-14 -2 -22 -12t-6.5 -23.5t11.5 -21.5t23 -7q46 5 91 27q10 5 18 10q17 9 32 22q27 22 41 47q90 -35 189 -41q-11 -20 -26 -38q-9 -11 -19 -20q-12 -10 -26 -17q-24 -14 -54 -19q-15 -3 -24 -3q-13 0 -22.5 -9.5t-9.5 -22.5
t9.5 -22.5t22.5 -9.5q55 0 109 30q20 11 37 25q13 12 25 26q33 38 47 80q128 5 243 57q-2 -24 -17 -65q-12 -33 -46 -60q-28 -22 -56 -31q-12 -4 -18 -16t-2 -24.5t16 -18.5t25 -2q37 13 74 42q49 37 67 88q23 61 18 119q10 6 18 11q50 31 91 69q21 20 33 33q8 11 7 24
t-11.5 21.5z" />
    <glyph glyph-name="uniE62A" unicode="&#xe62a;" 
d="M913 -56l-357 357l357 357q8 9 8 20.5t-8.5 20t-20.5 8.5t-20 -8l-357 -357l-357 357q-8 8 -20 8t-20.5 -8.5t-8.5 -20t9 -20.5l357 -357l-357 -357q-9 -8 -9 -20t8.5 -20.5t20.5 -8.5t20 9l357 357l357 -357q8 -9 20 -9t20.5 8.5t8.5 20.5t-8 20z" />
    <glyph glyph-name="uniE62B" unicode="&#xe62b;" 
d="M512 -132q-88 0 -169 34q-78 33 -138.5 93.5t-93.5 138.5q-34 81 -34 169.5t34 168.5q33 79 93.5 139t138.5 93q81 34 169 34t169 -34q78 -33 138.5 -93t93.5 -139q34 -80 34 -168.5t-34 -169.5q-33 -78 -93.5 -138.5t-138.5 -93.5q-81 -34 -169 -34zM512 687
q-77 0 -147 -29t-124.5 -83.5t-83.5 -124.5t-29 -147t29 -147t83.5 -124.5t124.5 -83.5t147 -29t147 29t124.5 83.5t83.5 124.5t29 147t-29 147t-83.5 124.5t-124.5 83.5t-147 29zM758 277h-492q-10 0 -17.5 7.5t-7.5 18t7.5 18t17.5 7.5h492q10 0 17.5 -7.5t7.5 -18
t-7.5 -18t-17.5 -7.5z" />
    <glyph glyph-name="uniE62C" unicode="&#xe62c;" 
d="M559 -163h-4q-9 2 -16 8.5t-8 16.5l-56 402l-401 56q-10 1 -17 8t-8 17q-3 21 17 30l866 385q19 8 33 -6t6 -32l-385 -868q-8 -17 -27 -17zM182 363l322 -45q10 -2 16.5 -8.5t8.5 -16.5l45 -323l313 707z" />
    <glyph glyph-name="uniE62D" unicode="&#xe62d;" 
d="M843 -2q0 50 -35.5 85.5t-85.5 35.5q-43 0 -77 -29l-238 153q15 28 15 57q0 27 -13 52l239 156q33 -27 74 -27q50 0 85.5 35.5t35.5 85.5t-35.5 85.5t-85 35.5t-85 -35.5t-35.5 -85.5q0 -24 9 -46l-239 -156l2 -4q-33 25 -72 25q-50 0 -85.5 -35.5t-35.5 -85.5
t35.5 -85.5t85.5 -35.5q33 0 63 19l245 -158q-8 -21 -8 -42q0 -50 35.5 -85.5t85 -35.5t85 35.5t35.5 85.5v0zM689 552l-25 38v-1q-2 7 -2 13q0 25 17.5 43t42.5 18t43 -18t18 -43t-18 -42.5t-43 -17.5q-18 0 -33 10v0zM241 300q0 25 18 42.5t42.5 17.5t42.5 -17.5t18 -42.5
t-18 -42.5t-42.5 -17.5t-42.5 17.5t-18 42.5zM662 -2q0 25 17.5 42.5t42.5 17.5t42.5 -17.5t17.5 -42.5t-17.5 -43t-42.5 -18t-42.5 18t-17.5 43v0z" />
    <glyph glyph-name="uniE62E" unicode="&#xe62e;" 
d="M512 234q-2 0 -4 2l-111 122q-2 2 -0.5 5t4.5 3h222q3 0 4.5 -3t-1.5 -5l-111 -122q-1 -2 -3 -2zM623 361l-111 -122l-111 122h222zM623 371h-222q-6 0 -9 -6t1 -11l111 -122q4 -3 8 -3t8 3l111 122q4 5 1 11t-9 6z" />
    <glyph glyph-name="uniE62F" unicode="&#xe62f;" 
d="M522 758q-92 0 -176 -36t-145 -96.5t-97 -145t-36 -176.5t36 -176t97 -145t145 -97t176 -36t176 36t145 97t97 145t36 176t-36 176.5t-97 145t-145 96.5t-176 36zM522 -93q-108 0 -199.5 53.5t-144.5 145t-53 199t53 199t144.5 144.5t199.5 53t199.5 -53t144.5 -144.5
t53 -199t-53 -199t-144.5 -145t-199.5 -53.5zM698 193q13 0 22 -7t9 -18q0 -10 -9.5 -17t-21.5 -7h-151v-84q0 -10 -8.5 -17t-22.5 -7q-13 0 -22 7t-9 17v84h-151q-12 0 -21 7.5t-9 17.5t9 17t21 7h151v73h-151q-13 0 -21.5 7t-8.5 18q0 9 9 15.5t21 6.5h128l-132 194
q-6 9 -2 18t17 14q10 4 22 1t18 -11l133 -194l131 195q6 9 18.5 11.5t22.5 -2.5q12 -4 16 -13.5t-2 -17.5v1l-132 -196h126q13 0 22 -6.5t9 -17t-9 -17t-22 -6.5h-151v-73h151z" />
    <glyph glyph-name="uniE630" unicode="&#xe630;" 
d="M986 366q-29 43 -71 52q-10 30 -40 39q-14 138 -116 232q-105 98 -249 98t-250 -98q-101 -94 -115 -232q-30 -9 -40 -39q-42 -9 -72 -52q-33 -50 -33 -119.5t33 -119.5q30 -44 72 -53q6 -18 22 -30t36 -12q26 0 43.5 18t17.5 43v306q0 19 -10.5 34.5t-27.5 22.5
q13 120 102 203q94 87 222 87t222 -87q89 -83 102 -203q-17 -7 -28 -22.5t-11 -34.5v-306q0 -19 11.5 -35t28.5 -22q-4 -61 -41 -93.5t-101 -32.5h-64q-7 18 -22.5 29.5t-35.5 11.5h-102q-25 0 -43 -18t-18 -43.5t18 -43.5t43 -18h102q20 0 35.5 11.5t22.5 29.5h64
q81 0 129.5 44.5t53.5 121.5q29 10 39 39q42 9 71 53q34 50 34 119.5t-34 119.5zM184 93q0 -8 -6 -14t-14.5 -6t-14.5 6t-6 14.5t-6 14.5t-15 6q-33 0 -57 39t-24 93t24 93.5t57 39.5q9 0 15 6t6 14t6 14t14.5 6t14.5 -6t6 -14v-306zM571 -131h-102q-8 0 -14 6t-6 14.5
t6 14.5t14 6h102q8 0 14 -6t6 -14.5t-6 -14.5t-14 -6zM897 114q-8 0 -14 -6t-6 -14.5t-6 -14.5t-14.5 -6t-14.5 6t-6 14v306q0 8 6 14t14.5 6t14.5 -6t6 -14t6 -14t14 -6q33 0 57.5 -39.5t24.5 -93.5t-24.5 -93t-57.5 -39z" />
    <glyph glyph-name="uniE631" unicode="&#xe631;" 
d="M205 353q-32 0 -54.5 -23.5t-22.5 -56.5v-345q0 -33 22.5 -56.5t54.5 -23.5h614q32 0 54.5 23.5t22.5 56.5v345q0 33 -22.5 56.5t-54.5 23.5h-25h-77h-410v156q0 76 58.5 119.5t146.5 43.5t146.5 -43.5t58.5 -119.5v-23h77v27q0 99 -67.5 169t-163.5 70h-102
q-96 0 -163.5 -70t-67.5 -169v-160h-25z" />
    <glyph glyph-name="uniE632" unicode="&#xe632;" 
d="M804 126v275q0 106 -68.5 186.5t-171.5 98.5v22q0 14 -10 24t-24 10h-34q-14 0 -24 -10t-10 -24v-22q-103 -18 -171 -98.5t-68 -186.5v-275l-119 -97v-55h819v55zM889 8h-751v5l107 87l13 10v16v275q0 106 75 181t180.5 75t181 -75t75.5 -181v-275v-16l12 -10l107 -87v-5
zM513.5 -145q35.5 0 60.5 25t25 60h-171q0 -35 25 -60t60.5 -25z" />
    <glyph glyph-name="uniE633" unicode="&#xe633;" 
d="M506 110l-16 14q-28 26 -50 49q-62 65 -110 140q-72 114 -69 197q5 100 76 168q72 70 175 70q51 0 98.5 -19.5t83.5 -55.5q69 -69 68 -166v-10q-1 -13 -4 -27q-12 -68 -50 -132q-25 -41 -69 -92q-38 -47 -72 -77q-12 -13 -20 -20zM512 707q-86 0 -146 -58t-64 -141
q-3 -70 63 -173q45 -71 105 -134q17 -18 35 -35l13 12q8 8 21 20v1q32 28 68 73h1q41 49 65 87q34 57 45 118v1q2 11 3 22v8q1 79 -56 137q-63 62 -153 62zM512 410q-43 0 -73.5 29.5t-30.5 71t30.5 70.5t73.5 29t73 -29t30 -70.5t-30 -71t-73 -29.5zM512 569
q-26 0 -44.5 -17t-18.5 -41.5t18.5 -42t44.5 -17.5t44 17.5t18 42t-18 41.5t-44 17zM947 476l-137 -48l12 -39l97 34v-450l-272 -71l-286 77l-256 -62v439l99 67l-27 31l-113 -75v0v-509h41l256 64l286 -81l313 90v499z" />
    <glyph glyph-name="uniE634" unicode="&#xe634;" 
d="M269 749v-47h-61q-21 0 -37.5 -13t-21.5 -33q-2 -9 -2 -19v-674q0 -30 18 -47.5t47 -17.5h601q30 0 47.5 17.5t17.5 47.5v673q0 30 -17.5 48t-47.5 18h-56v47h14q75 0 81 -1q32 -3 53 -27t21 -57v-322v-404q0 -38 -25 -63t-63 -25h-651q-38 0 -62.5 25t-24.5 63v723
q0 39 24.5 63.5t63.5 24.5h81zM513 410h-250q-11 0 -14 3.5t-3 14.5v17q0 12 12 12h6h497q12 0 15.5 -3t3.5 -16v-15q-1 -13 -13 -13h-7h-247zM512 142h-250q-10 0 -13 3.5t-3 13.5q-1 14 0 17q0 13 12 14h7h495q13 0 16.5 -3.5t3.5 -16.5v-13q0 -8 -3.5 -11.5t-11.5 -3.5
h-253zM522 702h-129q-9 0 -12.5 3t-3.5 12v19q1 13 15 13h33h225q11 0 14.5 -3t3.5 -14v-16q0 -14 -14 -14h-132z" />
    <glyph glyph-name="uniE635" unicode="&#xe635;" 
d="M597 -144v1l-1 1q-10 9 -10 25v55v380q0 17 12 30q56 55 250 250q12 11 16 24q6 22 -7.5 41t-36.5 20h-5h-606q-37 0 -48 -32q-8 -24 8 -45q4 -6 11 -12q150 -151 238 -239q12 -12 12 -29v-259q0 -21 -16 -30q-15 -7 -29 1t-16 24v7v244q0 5 -3 8l-235 235q-33 33 -33 78
q0 38 22.5 67.5t58.5 38.5q14 4 30 4h606q64 0 97 -55q16 -27 14 -60.5t-21 -58.5q-7 -9 -15 -16q-130 -131 -240 -240q-3 -4 -3 -9v-414q0 -24 -12 -35h-38z" />
    <glyph glyph-name="uniE636" unicode="&#xe636;" 
d="M512 748q-91 0 -174 -35.5t-143 -95.5t-95.5 -143t-35.5 -174q0 -115 55 -215q3 -10 10 -17q12 -12 29 -12t29 11.5t12 28.5l-1 4q0 6 -1 11q-3 10 -10 17q-43 80 -43 173q0 99 49 184t134 134t184.5 49t184 -49t133.5 -134t49 -184.5t-49 -184t-133.5 -133.5t-184.5 -49
q-118 0 -214 68q-6 8 -15 12q-8 3 -16 3q-17 0 -29 -12t-12 -28v-4q0 -13 7 -23q8 -12 22 -16q115 -82 258 -82q91 0 174 35.5t143 95.5t95.5 143t35.5 174t-35.5 174t-95.5 143t-143 95.5t-174 35.5zM511 125q-19 0 -32.5 -13.5t-13.5 -32.5l1 -1q0 -19 13 -32.5t32 -13.5
t32.5 13.5t13.5 32.5v1q0 19 -13.5 32.5t-32.5 13.5zM335 391q1 -16 12 -27t27 -11t27.5 11t12.5 27q0 41 28.5 69.5t69 28.5t69.5 -28.5t29 -69t-29 -69.5t-69 -29v0h-1q-16 0 -27.5 -11.5t-11.5 -27.5v-54q0 -16 11.5 -27.5t28 -11.5t28 11.5t11.5 27.5v19
q59 13 98.5 61.5t39.5 110.5q0 73 -52 125t-125 52t-124.5 -51t-52.5 -124v-1v0v-1z" />
    <glyph glyph-name="uniE637" unicode="&#xe637;" 
d="M621 428q2 -1 5 -2q21 -7 44.5 6.5t37.5 42.5q15 31 10.5 59t-26.5 39q-22 10 -47 -3t-40 -44q-14 -27 -11 -53q3 -33 27 -45zM644.5 506.5q4.5 9.5 11 16t10.5 8.5t6 2q2 -1 3 -6t-0.5 -14t-6 -18.5t-11 -16t-11 -8.5t-5.5 -2q-2 2 -3 6.5t0.5 13.5t6 18.5zM710 364
q4 -3 9 -4q18 -7 37.5 2t32.5 29q15 23 12.5 47t-21.5 36q-18 11 -41 3.5t-38 -30.5q-14 -23 -11.5 -47t20.5 -36zM739 423q9 14 17 13q5 -6 -5 -21q-8 -14 -17 -13q-4 7 5 21zM850 346q-10 18 -34 22t-46 -9q-23 -13 -32 -34.5t2 -40.5q8 -14 24 -20q27 -9 55 7
q21 12 31 31q11 24 0 44zM798 310q-11 -6 -19 -4q1 8 13 15q10 5 19 4q0 -7 -13 -15zM627 404l-151 93l-3 2q-62 26 -117 -7q-48 -28 -58 -81q-6 -36 18 -115q6 -21 9 -32.5t6 -29.5t2 -31t-6 -24q-6 -15 -16.5 -26.5t-19 -17.5t-24.5 -16q-17 -11 -27 -18t-25 -23t-25 -35
q-26 -50 -6 -100q22 -56 94 -82l1 -1q49 -17 99 9t77 64q0 1 1 1v1l3 4h-1q1 1 1 1.5t1 0.5q3 9 -1 17.5t-13 11.5q-16 6 -26 -8q-35 -38 -65 -54.5t-62 -4.5q-53 19 -68 56q-12 31 5 63q7 15 18 26.5t19 17.5t24 16q18 11 28 18.5t24.5 23.5t24.5 36q9 22 9 50t-4.5 46.5
t-14.5 52.5q-21 69 -16 95q6 32 36 50q34 20 73 6q1 -1 3 -1l149 -92q79 -53 38 -142q-17 -33 -39 -63.5t-37.5 -47t-41.5 -39.5v-1q-3 -3 -5 -8q-3 -9 1 -17.5t13 -11.5q13 -5 23 5q86 81 126 164q58 123 -54 198zM371 514q9 -3 18 -4q36 -2 63.5 30.5t30.5 82.5
q3 42 -14 75.5t-47 43.5q-9 4 -18 4q-38 3 -66 -34q-25 -32 -28 -78q-2 -42 14.5 -75.5t46.5 -44.5zM355 631q2 33 18 54q14 18 28 17q3 0 6 -1q14 -5 23.5 -26.5t7.5 -48.5q-2 -31 -16.5 -51.5t-29.5 -19.5q-3 0 -6 1q-14 5 -23.5 26t-7.5 49zM520 488.5q24 -8.5 49 8.5
t37 51t3.5 63t-32.5 37.5t-49 -9t-37 -51t-3.5 -62.5t32.5 -37.5zM562.5 606.5q2.5 -0.5 4.5 -6t1.5 -16t-4.5 -22t-10.5 -19.5t-11.5 -11t-7 -2t-4 6.5t-2 15.5t4 21.5t10.5 20t11.5 11t7.5 2z" />
    <glyph glyph-name="uniE638" unicode="&#xe638;" 
d="M352 364h-256q-40 0 -68 28t-28 68v256q0 40 28 68t68 28h256q40 0 68 -28t28 -68v-256q0 -40 -28 -68t-68 -28zM96 748q-13 0 -22.5 -9.5t-9.5 -22.5v-256q0 -13 9.5 -22.5t22.5 -9.5h256q13 0 22.5 9.5t9.5 22.5v256q0 13 -9.5 22.5t-22.5 9.5h-256zM352 -148h-256
q-40 0 -68 28t-28 68v256q0 40 28 68t68 28h256q40 0 68 -28t28 -68v-256q0 -40 -28 -68t-68 -28zM96 236q-13 0 -22.5 -9.5t-9.5 -22.5v-256q0 -13 9.5 -22.5t22.5 -9.5h256q13 0 22.5 9.5t9.5 22.5v256q0 13 -9.5 22.5t-22.5 9.5h-256zM864 -148h-256q-40 0 -68 28t-28 68
v256q0 40 28 68t68 28h256q40 0 68 -28t28 -68v-256q0 -40 -28 -68t-68 -28zM608 236q-13 0 -22.5 -9.5t-9.5 -22.5v-256q0 -13 9.5 -22.5t22.5 -9.5h256q13 0 22.5 9.5t9.5 22.5v256q0 13 -9.5 22.5t-22.5 9.5h-256zM864 364h-256q-40 0 -68 28t-28 68v256q0 40 28 68
t68 28h256q40 0 68 -28t28 -68v-256q0 -40 -28 -68t-68 -28zM608 748q-13 0 -22.5 -9.5t-9.5 -22.5v-256q0 -13 9.5 -22.5t22.5 -9.5h256q13 0 22.5 9.5t9.5 22.5v256q0 13 -9.5 22.5t-22.5 9.5h-256z" />
    <glyph glyph-name="uniE639" unicode="&#xe639;" 
d="M512 812q-139 0 -257 -68.5t-186.5 -186.5t-68.5 -257t68.5 -257t186.5 -186.5t257 -68.5t257 68.5t186.5 186.5t68.5 257t-68.5 257t-186.5 186.5t-257 68.5zM747 156q6 -6 6 -14.5t-6 -14.5l-62 -62q-6 -6 -14.5 -6t-14.5 6l-144 144l-144 -144q-6 -6 -14.5 -6t-14.5 6
l-62 62q-6 6 -6 14.5t6 14.5l144 144l-144 144q-6 6 -6 14.5t6 14.5l62 62q6 6 14.5 6t14.5 -6l144 -144l144 144q6 6 14.5 6t14.5 -6l62 -62q6 -6 6 -14.5t-6 -14.5l-144 -144z" />
    <glyph glyph-name="uniE63A" unicode="&#xe63a;" 
d="M723 269h-63q-13 0 -22 9t-9 22t9 22t22 9h63q13 0 22 -9t9 -22t-9 -22t-22 -9zM637 389q-10 -10 -23 -10t-22 9.5t-9 22.5t9 22l45 44q9 9 22 9t22 -9t9 -22t-9 -22zM504 49q-13 0 -22.5 9.5t-9.5 22.5v62q0 13 9.5 22.5t22.5 9.5t22 -9.5t9 -22.5v-62q0 -13 -9 -22.5
t-22 -9.5zM504 425q-13 0 -22.5 9.5t-9.5 22.5v62q0 13 9.5 22.5t22.5 9.5t22 -9.5t9 -22.5v-62q0 -13 -9 -22.5t-22 -9.5zM371 123q-9 -9 -22 -9t-22.5 9t-9.5 22t10 22l44 44q9 10 22 10t22 -9.5t9 -22.5t-9 -22zM371 389l-44 44q-10 9 -10 22t9.5 22t22.5 9t22 -9l44 -44
q9 -9 9 -22t-9 -22.5t-22 -9.5t-22 10zM378 300q0 -13 -9 -22t-22 -9h-63q-13 0 -22 9t-9 22t9 22t22 9h63q13 0 22 -9t9 -22zM637 211l44 -44q9 -9 9 -22t-9 -22t-22 -9t-22 9l-45 44q-9 9 -9 22t9 22.5t22 9.5t23 -10z" />
    <glyph glyph-name="uniE63B" unicode="&#xe63b;" 
d="M518 498q51 0 103.5 15.5t127.5 61.5q98 60 185 135q-28 38 -83 38h-678q-55 0 -83 -38q80 -64 128 -96q85 -67 149 -91.5t151 -24.5zM960 646q-105 -88 -198 -141q-110 -64 -250 -64q-81 0 -147.5 18t-146.5 71q-30 22 -65 48.5t-58 44t-31 23.5v-7v-685
q0 -43 30.5 -72.5t78.5 -29.5h685q44 0 76 31t32 78zM678 172q0 -5 -4 -9t-8 -4h-128v-57h128q4 0 8 -4t4 -9v-26q0 -5 -4 -9t-8 -4h-128v-70q0 -5 -4 -9t-9 -4h-26q-5 0 -9 4t-4 9v64h-128q-4 0 -8 4t-4 9v25q0 5 4 9t8 4h128v58h-128q-4 0 -8 4t-4 9v32q0 4 4 8t8 4h71
l-77 128q-6 7 6 20l26 12q6 7 19 -6l90 -154h51l83 154q7 6 19 6l26 -12q6 -7 6 -20l-76 -128h64q4 0 8 -4t4 -8v-26z" />
    <glyph glyph-name="uniE63C" unicode="&#xe63c;" 
d="M576 -132l-465 387l-6 -3q-4 -2 -11 -13t-7 -25.5t2.5 -24.5t5.5 -13l2 -2l479 -398q-14 28 -14 49q0 9 3.5 20t6.5 17zM578 -210q0 -6 4.5 -8t8.5 -2l309 203l1 30l-316 -209l-1 -2q-2 -1 -4 -4t-2 -8zM576 -180q5 -6 11 -3l295 201v15l-301 -203q-2 0 -3 -1t-3 -4t1 -5
zM585 -155l297 201v15l-301 -203q0 -1 -1 -2t-3 -3.5t0 -4.5zM882 107l-292 -194l-445 368l-18 -11l457 -394l313 218zM115 337l479 -397q-14 28 -14 49q0 6 1.5 12.5t3.5 11.5t4 9.5t3 7.5l2 2l-465 387l-6 -3q-4 -2 -11 -13t-7 -25.5t2.5 -24.5t5.5 -13zM596 -46
q0 -6 4.5 -8.5t8.5 -1.5q1 1 78.5 51.5t154.5 100.5l76 51l1 30l-316 -209l-1 -2q-2 -1 -4 -4.5t-2 -7.5zM594 -16q5 -6 11 -3q3 1 295 200v16l-302 -203q-8 -5 -4 -10zM603 9l297 201v15l-301 -203l-2 -2q-1 -1 -2.5 -3.5t0.5 -4.5q4 -5 8 -3zM900 271l-292 -194l-445 368
l-18 -11l457 -394l313 218zM133 505l479 -397q-14 28 -14 49q0 9 3.5 19.5t6.5 16.5l4 7l-465 387q-2 -1 -6 -3.5t-11 -13t-7 -25t2.5 -24.5t5.5 -13zM621 136q-7 -4 -7 -14q0 -6 4.5 -8.5t8 -1.5t309.5 203l1 30zM612 152q5 -6 11 -3q1 0 75 50.5t147 100.5l73 49v16
l-302 -203q-1 0 -2 -1t-3 -4t1 -5zM621 177l297 201v15l-301 -203l-2 -2q-1 -1 -2.5 -3.5t0.5 -5.5zM933 426l-432 374l-338 -198l457 -394zM317 560l225 133l85 -72l-222 -140zM488 496l-10 8l100 66l7 -10z" />
    <glyph glyph-name="uniE63D" unicode="&#xe63d;" 
d="M664 500q9 9 9 22.5t-9 22.5l-152 152l-152 -152q-9 -9 -9 -22.5t9.5 -23t22.5 -9.5t23 10l74 73v-533q0 -13 9.5 -22.5t22.5 -9.5t22.5 9.5t9.5 22.5v533l74 -73q10 -10 23 -10t23 10z" />
    <glyph glyph-name="uniE63E" unicode="&#xe63e;" 
d="M664 206q-10 9 -23 9t-23 -9l-74 -74v533q0 13 -9.5 22.5t-22.5 9.5t-22.5 -9.5t-9.5 -22.5v-533l-74 74q-10 9 -23 9t-22.5 -9.5t-9.5 -23t9 -22.5l152 -152l152 152q9 9 9 22.5t-9 23.5z" />
    <glyph glyph-name="uniE63F" unicode="&#xe63f;" 
d="M960 135v441q0 71 -50.5 121.5t-121.5 50.5h-552q-71 0 -121.5 -50.5t-50.5 -121.5v-552q0 -71 50.5 -121.5t121.5 -50.5h552q63 0 110.5 40.5t58.5 101.5q-238 102 -347 155q-62 -77 -129 -114.5t-155 -37.5q-92 0 -148 49t-49 120q3 21 9.5 40.5t23 41.5t40.5 37
t65 22.5t93 2.5q24 -2 46 -5.5t35 -5.5t37 -9t30 -9l36 -12q30 -10 35 -12q31 58 50 122h-348v35h172v62h-210v38h210v89q2 14 18 14h86v-103h224v-38h-224v-62h182q-24 -102 -74 -186q24 -9 97.5 -32t135.5 -42l62 -19v0zM312 55q-46 0 -78 13.5t-46 33t-18.5 38t-1.5 33.5
q6 30 36.5 54.5t80.5 24.5q115 0 248 -65q-48 -63 -104.5 -97.5t-116.5 -34.5zM312 55z" />
    <glyph glyph-name="uniE640" unicode="&#xe640;" 
d="M317 493q-16 0 -28 -9.5t-12 -24t12 -24t28 -9.5q15 0 24 9.5t9 24.5t-9 24t-24 9zM590 300q-10 0 -18.5 -8.5t-8.5 -18.5t8.5 -18t18.5 -8q15 0 24 8t9 18.5t-9 18.5t-24 8zM959 611q0 57 -40 97t-96 40h-623q-57 0 -97 -40t-40 -97v-623q0 -56 40 -96t97 -40h623
q56 0 96 40t40 96v623zM404 153q-26 0 -94 14l-93 -47l27 80q-107 74 -107 180q0 94 78 160t189 66q98 0 174.5 -53t93.5 -134q-14 2 -25 2q-95 0 -161 -62t-66 -149q0 -28 8 -56q-13 -1 -24 -1zM796 60l20 -67l-73 40q-53 -13 -80 -13q-94 0 -160 56.5t-66 136.5t66 136.5
t160 56.5q91 0 159 -57t68 -136q0 -83 -94 -153zM737 300q-10 0 -18.5 -8.5t-8.5 -18.5t8.5 -18t18.5 -8q14 0 23.5 8t9.5 18.5t-9.5 18.5t-23.5 8zM503 426q15 0 24.5 9.5t9.5 24.5t-9 24t-25 9q-15 0 -27.5 -9.5t-12.5 -24t12.5 -24t27.5 -9.5zM503 426z" />
    <glyph glyph-name="uniE641" unicode="&#xe641;" 
d="M239 -130q-18 0 -30.5 12.5t-12.5 30.5v319q0 17 12.5 29.5t30.5 12.5h321v310l-109 -110q-13 -12 -30.5 -12t-30 12.5t-12.5 30t12 30.5l180 179q1 2 3 3q12 13 30 13v0q18 0 30 -13q2 -1 3 -3l179 -179q13 -13 13 -30.5t-12.5 -30t-30.5 -12.5t-30 12l-109 110v-352
q0 -18 -12.5 -30.5t-30.5 -12.5h-321v-276q0 -18 -12.5 -30.5t-30.5 -12.5z" />
    <glyph glyph-name="uniE642" unicode="&#xe642;" 
d="M983 525q-39 79 -110 139q-72 61 -165.5 94t-195.5 33t-195.5 -33t-165.5 -94q-71 -60 -110 -139q-41 -81 -41 -170q0 -120 71 -223q66 -93 174 -150q-10 -42 -26.5 -75.5t-24 -42.5t-12.5 -14l-47 -41l61 12q161 30 264 100q27 -2 52 -2q102 0 195.5 32.5t165.5 93.5
q71 61 110 139q41 81 41 170.5t-41 170.5zM797 216.5q-70 -13.5 -131 35.5t-77 131q-1 5 -1 10q0 -19 -2 -38q-11 -83 -69 -135.5t-128.5 -43.5t-113 75t-31.5 149.5t69 136t129 43.5q55 -8 94 -51.5t49 -105.5q-2 72 35.5 126.5t98.5 66.5q70 14 131 -35t77 -131.5
t-22 -151t-108 -82zM588 393q-1 15 -3 30q0 -15 3 -30zM550 382.5q0 -23.5 -17 -40t-40.5 -16.5t-40 16.5t-16.5 40t16.5 40t40 16.5t40.5 -16.5t17 -40zM723 408.5q0 -23.5 -16.5 -40.5t-40 -17t-40 17t-16.5 40.5t16.5 40t40 16.5t40 -16.5t16.5 -40z" />
    <glyph glyph-name="uniE643" unicode="&#xe643;" 
d="M135 -191l47 41q5 5 12.5 14t24 42.5t26.5 75.5q-108 57 -174 150q-71 103 -71 223q0 89 41 170q39 79 110 139q72 61 165.5 94t195.5 33t195.5 -33t165.5 -94q71 -60 110 -139q41 -81 41 -170.5t-41 -170.5q-39 -78 -110 -139q-72 -61 -165.5 -93.5t-195.5 -32.5
q-25 0 -52 2q-103 -70 -264 -100zM512 757q-130 0 -240 -54t-174 -146.5t-64 -201.5q0 -107 64 -200.5t175 -147.5l12 -6l-3 -13q-16 -73 -47 -124q128 30 211 88l5 4l6 -1q29 -2 55 -2q130 0 240 53.5t174 146.5t64 202t-64 201.5t-174 146.5t-240 54zM441.5 579.5
q-70.5 9.5 -128.5 -43t-69 -136t31.5 -149.5t113 -75t128.5 43.5t69 136t-31.5 149t-113 75zM492.5 326q-23.5 0 -40 16.5t-16.5 40t16.5 40t40 16.5t40.5 -16.5t17 -40t-17 -40t-40.5 -16.5zM927 449.5q-16 82.5 -77 131.5t-131 35.5t-108 -82t-22 -151t77 -131.5
t131 -35.5t108 82t22 151zM666.5 351q-23.5 0 -40 17t-16.5 40.5t16.5 40t40 16.5t40 -16.5t16.5 -40t-16.5 -40.5t-40 -17z" />
    <glyph glyph-name="uniE644" unicode="&#xe644;" 
d="M814 662h-605q-15 0 -26 -11t-11 -26t11 -25.5t26 -10.5h605q15 0 25.5 10.5t10.5 25.5t-10.5 26t-25.5 11zM806 276l-269 268q-10 12 -26 12q-15 0 -26 -12l-268 -268q-11 -10 -11 -25t11 -26t26 -11t26 11l205 206v-480q0 -15 11 -25.5t26 -10.5t25.5 10.5t10.5 25.5
v481l207 -207q11 -11 26 -11t25.5 10.5t10.5 26t-10 25.5z" />
    <glyph glyph-name="uniE645" unicode="&#xe645;" 
d="M954 -114l-284 284q88 99 88 231q0 94 -46.5 173.5t-126 126t-174 46.5t-174 -46.5t-126 -126t-46.5 -174t46.5 -174t126 -126t174.5 -46.5q131 0 229 87l284 -284q6 -5 14.5 -5t14.5 6t6 14.5t-6 13.5zM106 400.5q0 126.5 89.5 216t216 89.5t216 -89.5t89.5 -216
t-89.5 -216t-216 -89.5t-216 89.5t-89.5 216z" />
    <glyph glyph-name="uniE646" unicode="&#xe646;" 
d="M80 453zM959 415q0 -42 -30 -72t-72 -30h-231q-42 0 -72 30t-30 72v232q0 41 30 71t72 30h333v-333zM78 146zM397 748q42 0 72 -30t30 -71v-232q0 -42 -30 -72t-72 -30h-232q-41 0 -71 30t-30 72v333h333zM79 148zM959 -147h-333q-42 0 -71.5 29.5t-29.5 71.5v232
q0 42 29.5 71.5t71.5 29.5h232q42 0 71.5 -29.5t29.5 -71.5v-333zM64 -147v333q0 42 30 71.5t71 29.5h232q42 0 72 -29.5t30 -71.5v-232q0 -42 -30 -71.5t-72 -29.5h-333z" />
    <glyph glyph-name="uniE647" unicode="&#xe647;" 
d="M935 487q-1 22 -12 56q-19 59 -56 101q-31 36 -74 55q-48 23 -108 23q-88 0 -150 -58q-13 -12 -23 -26q-30 39 -74.5 62t-95.5 23q-80 0 -138 -37q-47 -30 -77 -82q-33 -57 -38 -116v-2v-1q0 -48 8 -77q16 -62 48 -97l367 -395l370 396q24 31 34.5 57.5t16.5 62.5
q5 31 2 55zM847 334l-335 -355l-334 356q-13 18 -22.5 34.5t-15 26.5t-8 25.5t-3 19.5t0 22.5t0.5 21.5q0 4 1 11t6.5 27.5t14 39.5t25 41.5t37.5 39t54.5 27.5t73.5 11q28 1 62 -12.5t66 -46t43 -75.5q0 1 4.5 14.5t17 34.5t31 40t50 32.5t69.5 11.5q52 -2 92.5 -22.5
t62 -48t35 -57t17 -47.5t2.5 -23q1 0 1 -7.5t-1.5 -22t-5.5 -32.5t-14.5 -41.5t-26.5 -45.5z" />
    <glyph glyph-name="uniE648" unicode="&#xe648;" 
d="M877 630h-572h572zM877 599h-572q-13 0 -22 9t-9 22t9 22t22 9h572q13 0 22 -9t9 -22t-9 -22t-22 -9zM877 303h-572h572zM877 272h-572q-13 0 -22 9t-9 22t9 22t22 9h572q13 0 22 -9t9 -22t-9 -22t-22 -9zM877 -24h-572h572zM877 -55h-572q-13 0 -22 9t-9 21.5t9 21.5
t22 9h572q13 0 22 -9t9 -21.5t-9 -21.5t-22 -9zM166 -24zM114 -24q0 21 15 36t36.5 15t36.5 -15t15 -36t-15 -36.5t-36.5 -15.5t-36.5 15.5t-15 36.5zM166 300zM114 300.5q0 21.5 15 36.5t36.5 15t36.5 -15t15 -36.5t-15 -36.5t-36.5 -15t-36.5 15t-15 36.5zM166 630z
M114 630q0 21 15 36t36.5 15t36.5 -15t15 -36t-15 -36t-36.5 -15t-36.5 15t-15 36z" />
    <glyph glyph-name="uniE649" unicode="&#xe649;" 
d="M1023 299.5q0 -104.5 -40.5 -199t-109 -163t-163 -109t-198.5 -40.5t-198.5 40.5t-163 109t-109 163t-40.5 199t40.5 199t109 163t163 109t198.5 40.5t198.5 -40.5t163 -109t109 -163t40.5 -199zM731 502h-438v-34h438v34zM731 216l-203 169h-33l-202 -169v-33h34
l168 145v-314h34v314l168 -145h33v33h1z" />
    <glyph glyph-name="uniE64A" unicode="&#xe64a;" 
d="M812 136q11 -12 27 -12.5t28 10.5q12 10 12.5 25.5t-9.5 26.5l-332 343q-11 11 -26.5 11t-25.5 -11l-332 -343q-11 -11 -10 -26.5t13 -25.5q12 -11 28 -10.5t27 12.5l287 297q5 6 13 6t13 -6z" />
    <glyph glyph-name="uniE64B" unicode="&#xe64b;" 
d="M883 439q0 101 -50 186.5t-135.5 135t-186 49.5t-186 -49.5t-135.5 -135t-50 -186.5q0 -128 79 -229l293 -422l292 422q79 101 79 229zM511.5 239q-82.5 0 -141 58.5t-58.5 141.5t58.5 141t141 58t141 -58t58.5 -141t-58.5 -141.5t-141 -58.5z" />
    <glyph glyph-name="uniE64C" unicode="&#xe64c;" 
d="M274 -133l-2 2q-18 18 -18 44.5t18 44.5l388 388q19 19 45 19t45 -19l2 -1q18 -19 18 -45t-18 -45l-388 -388q-19 -18 -45 -18t-45 18zM272 731l2 2q19 18 45 18t45 -18l388 -388q18 -19 18 -45t-18 -45l-2 -1q-19 -19 -45 -19t-45 19l-388 388q-18 18 -18 44.5t18 44.5z
" />
    <glyph glyph-name="uniE64D" unicode="&#xe64d;" 
d="M439 300l170 181q9 10 0 20t-18 0l-179 -190q-4 -5 -3 -11q-1 -6 3 -11l179 -190q4 -4 9.5 -4t8.5 4q9 10 0 20z" />
    <glyph glyph-name="uniE64E" unicode="&#xe64e;" 
d="M147 105q9 -9 22 -9t22 9l319 322l323 -320q10 -9 22.5 -9t21.5 9t9 22t-9 22l-344 341h-1v1h-1q-9 9 -21 9q-14 0 -23 -9l-340 -344q-9 -9 -9 -22t9 -22z" />
    <glyph glyph-name="uniE64F" unicode="&#xe64f;" horiz-adv-x="1025" 
d="M784 -111h-209q-8 0 -14.5 6t-6.5 15v272h-84v-272q0 -9 -6.5 -15t-15.5 -6h-209q-43 0 -74 31t-31 75v332h-113q-14 0 -19.5 13.5t5.5 23.5l491 443q14 12 28 0l491 -443q11 -10 5.5 -23.5t-19.5 -13.5h-113v-332q0 -44 -31 -75t-75 -31zM597 -69h187q27 0 45.5 18.5
t18.5 45.5v353q0 9 6 15t15 6h79l-436 393l-436 -393h79q9 0 15 -6t6 -15v-353q0 -27 18.5 -45.5t44.5 -18.5h188v272q0 9 6.5 15t14.5 6h127q9 0 15.5 -6t6.5 -15v-272z" />
    <glyph glyph-name="uniE650" unicode="&#xe650;" 
d="M894 684l-764 -318l316 -132l126 -316z" />
    <glyph glyph-name="uniE651" unicode="&#xe651;" 
d="M969 319q-39 129 -166.5 211.5t-290.5 82.5q-169 0 -299.5 -89.5t-161.5 -226.5l-2 -9l1 -4q29 -140 160 -230.5t302 -90.5q110 0 208.5 42.5t166 117t87.5 165.5l1 4q0 7 -6 27zM512 1q-156 0 -276 81t-148 206v1q29 124 148.5 205t275.5 81q150 0 267.5 -75t152.5 -192
v-1l4 -14q-30 -125 -151 -208.5t-273 -83.5zM512 457q-70 0 -119.5 -49.5t-49.5 -119.5t49.5 -119.5t119.5 -49.5t119.5 49.5t49.5 119.5t-49.5 119.5t-119.5 49.5zM512 157q-54 0 -92.5 38.5t-38.5 92.5t38.5 92.5t92.5 38.5t92.5 -38.5t38.5 -92.5t-38.5 -92.5
t-92.5 -38.5z" />
    <glyph glyph-name="uniE652" unicode="&#xe652;" horiz-adv-x="1033" 
d="M1023 492l-428 -428q-32 -33 -78 -33t-79 33l-429 429q-9 8 -9 21t9 22t21.5 9t21.5 -9l430 -429q15 -15 35.5 -15t34.5 15l428 428q8 9 21 9t22 -9t9 -21.5t-9 -21.5z" />
    <glyph glyph-name="uniE653" unicode="&#xe653;" 
d="M837 494l-230 230l-20 20q-10 10 -20 0l-20 -20h-1l-222 -222q-10 -10 0 -20l20 -20q10 -10 20 0l188 188v-403h-353q-6 0 -10 -4t-4 -10v-368q0 -5 4 -9.5t10 -4.5h28q6 0 10 4.5t4 9.5v326h354q6 0 10 4t4 10v436l188 -187q10 -10 20 0l20 20q10 10 0 20z" />
    <glyph glyph-name="uniE654" unicode="&#xe654;" 
d="M512 812q-104 0 -199 -40.5t-163.5 -109t-109 -163.5t-40.5 -199q0 -139 68.5 -257t186.5 -186.5t257 -68.5t257 68.5t186.5 186.5t68.5 257q0 104 -40.5 199t-109 163.5t-163.5 109t-199 40.5zM743 207q-13 0 -22 9l-178 179v-415q0 -13 -9.5 -22t-22 -9t-22 9t-9.5 22
v414l-177 -177q-9 -10 -22 -10t-22.5 9t-9.5 22t9 23l231 230q10 10 23 10t22 -9l232 -231q9 -10 9 -23t-9.5 -22t-22.5 -9zM773 530h-522q-13 0 -22 9t-9 22t9 22.5t22 9.5h522q13 0 22 -9.5t9 -22.5t-9 -22t-22 -9z" />
    <glyph glyph-name="uniE655" unicode="&#xe655;" 
d="M310 318q-3 0 -5 -1q2 1 5 1zM845 104q0 2 1 3q-1 0 -1 -3zM881 499zM845 499zM867 -37q-8 56 -33 107l-10 20q-24 40 -58 74l-16 14q-56 49 -126 71q13 7 24 16q13 10 25 21q64 65 64 155.5t-64 154.5q-63 63 -152 65h-2h-3q-89 -2 -152 -65q-64 -64 -64 -154.5
t64 -155.5q12 -11 25 -21q12 -9 24 -16q-70 -22 -126 -71q-8 -7 -15 -14q-34 -34 -58 -74q-6 -10 -11 -20q-25 -51 -32 -107q-2 -9 3.5 -16.5t14.5 -8.5h3h3q15 3 17 18q15 104 91 180q43 44 99 68.5t117 24.5t117 -24.5t99 -68.5q75 -76 90 -180q2 -15 17 -18h3h3
q9 1 14.5 8.5t4.5 16.5zM518 266h-1q-61 1 -110.5 38.5t-64.5 95.5v2q-5 20 -5 39.5t5 39.5v3q15 59 65 99.5t111 40.5h1q61 0 111 -40.5t65 -99.5q1 -2 1 -3q5 -20 5 -39.5t-5 -39.5q0 -1 -1 -2q-15 -58 -64 -95.5t-111 -38.5h-2z" />
    <glyph glyph-name="uniE656" unicode="&#xe656;" 
d="M812.5 368q-8.5 0 -14.5 -6t-6 -15v-336q0 -17 -12.5 -29.5t-29.5 -12.5h-505q-17 0 -29.5 12.5t-12.5 29.5v588q0 18 12.5 30t29.5 12h379q8 0 14.5 6.5t6.5 15t-6.5 14.5t-14.5 6h-379q-34 0 -59 -24.5t-25 -59.5v-588q0 -34 25 -59t59 -25h505q34 0 59 25t25 59v336
q0 9 -6.5 15t-15 6zM869.5 677q-6.5 6 -15 6t-14.5 -6l-525 -525q-7 -6 -7 -14.5t6.5 -15t15 -6.5t14.5 6l525 526q7 6 7 14.5t-6.5 14.5z" />
    <glyph glyph-name="uniE657" unicode="&#xe657;" 
d="M729 770q-128 0 -217 -119q-89 119 -217 119q-80 0 -148 -43t-107.5 -116.5t-39.5 -160.5q0 -38 7 -72t22.5 -66.5t26 -51t30.5 -49.5q17 -28 41.5 -58t50.5 -57.5t54.5 -54.5t57 -51.5t54 -46t49.5 -40t40 -30.5t29 -21l12 -9q17 -13 38 -13t38 13l12 9q13 9 29 21
t40 30.5t49.5 40t54 46t56.5 51.5t54.5 54.5t50.5 57.5t42 58q20 31 30.5 49.5t26 51t22.5 66.5t7 72q0 87 -39.5 160.5t-107.5 116.5t-148 43v0zM891 251q-30 -47 -80 -101t-100.5 -98t-96 -80.5t-74.5 -57.5l-29 -21q-11 8 -30 22t-71.5 55.5t-98.5 82.5t-98 96t-82 102
q-25 39 -38.5 63.5t-25 62.5t-11.5 76q0 106 68.5 180.5t165.5 74.5q70 0 121 -41t80 -111v1q5 -16 20.5 -16t19.5 16q29 69 80.5 110t120.5 41q97 0 166 -74.5t69 -180.5q0 -54 -19 -98.5t-57 -103.5v0z" />
    <glyph glyph-name="uniE658" unicode="&#xe658;" 
d="M411 -47l-8 2q-74 24 -132 77l-7 6l5 7q15 26 15 56.5t-15 56.5t-41.5 41t-56.5 15h-9l-2 9q-8 38 -8 76.5t8 76.5l2 8h9q30 0 56.5 15t41.5 41t15 56.5t-15 56.5l-5 8l7 6q58 52 132 76l8 3l5 -8q15 -26 41 -41t56 -15t56.5 15t41.5 41l4 8l9 -3q74 -24 132 -76l6 -6
l-4 -8q-15 -26 -15 -56.5t15 -56.5t41.5 -41t56.5 -15h8l2 -8q8 -38 8 -76.5t-8 -76.5l-2 -9h-8q-30 0 -56.5 -15t-41.5 -41t-15 -56.5t15 -56.5l4 -7l-6 -6q-58 -53 -132 -77l-9 -2l-4 7q-15 26 -41.5 41.5t-56.5 15.5t-56 -15.5t-41 -41.5zM513.5 38q33.5 0 63 -16
t48.5 -44q61 22 110 64q-15 30 -14 64t18 63t45.5 46.5t62.5 20.5q6 31 6 63t-6 64q-34 2 -62.5 20t-45.5 47t-18 62.5t14 63.5q-49 43 -110 64q-19 -28 -48.5 -44t-63 -16t-63.5 16t-48 44q-61 -21 -110 -64q14 -30 13 -63.5t-17.5 -62.5t-45.5 -47t-62 -20q-6 -32 -6 -64
t6 -63q33 -3 62 -20.5t45.5 -46.5t17.5 -63t-13 -64q49 -42 110 -64q18 28 48 44t63.5 16zM513.5 187q-46.5 0 -79.5 33t-33 79t33 79t79.5 33t79 -33t32.5 -79t-32.5 -79t-79 -33zM513.5 390q-37.5 0 -64 -26.5t-26.5 -64t26.5 -64t64 -26.5t64 26.5t26.5 64t-26.5 64
t-64 26.5z" />
    <glyph glyph-name="uniE659" unicode="&#xe659;" 
d="M176 -35l58 171q-101 85 -101 201q0 80 50.5 147.5t138 107t190 39.5t190 -39.5t138 -107t50.5 -147.5t-50.5 -148t-138 -107.5t-190.5 -39.5q-86 0 -165 30zM511.5 610q-97.5 0 -180 -36.5t-130 -99.5t-47.5 -137q0 -109 99 -189l5 -4l-43 -130l129 81l5 -2
q77 -30 162 -30q98 0 180 36.5t130 99.5t48 137.5t-48 137.5t-130 99.5t-179.5 36.5zM382 323.5q0 -17.5 -12 -29.5t-29.5 -12t-29.5 12t-12 29.5t12 29.5t29.5 12t29.5 -12t12 -29.5zM548 323.5q0 -17.5 -12.5 -29.5t-29.5 -12t-29 12t-12 29.5t12 29.5t29 12t29.5 -12
t12.5 -29.5zM713 323.5q0 -17.5 -12 -29.5t-29 -12t-29 12t-12 29.5t12 29.5t29 12t29 -12t12 -29.5z" />
    <glyph glyph-name="uniE65A" unicode="&#xe65a;" 
d="M506 703q-120 0 -205.5 -85.5t-85.5 -206.5q0 -46 14 -90q10 -30 27 -58l250 -362l251 362q16 28 26 58q15 44 15 90q0 121 -85.5 206.5t-206.5 85.5zM752 332q-8 -27 -23 -51l-223 -322l-223 322q-14 24 -23 51q-12 38 -12 79q0 53 20 101q20 46 55.5 82t82.5 55
q48 21 100.5 21t100.5 -21q46 -19 82 -55t56 -82q20 -48 20 -101q0 -41 -13 -79zM506 569q-64 0 -109.5 -45.5t-45.5 -109.5t45.5 -109.5t110 -45.5t110 45.5t45.5 109.5t-45.5 109.5t-110.5 45.5zM506 291q-50 0 -86 36t-36 87t36 87t86.5 36t86.5 -36t36 -87t-36 -87
t-87 -36zM506 291z" />
    <glyph glyph-name="uniE65B" unicode="&#xe65b;" 
d="M704 500q-44 44 -116 71q-56 22 -110 13q-74 -12 -106 -75q-45 -87 -14 -170q10 -28 17 -52q16 -55 -17 -105q-20 -29 -50 -57q-20 -18 -33 -40q-18 -30 -22 -63q-6 -47 12 -85q24 -52 80 -66q76 -20 139 22q35 23 69 58q78 82 148 189q43 64 61 131q6 29 6 30
q19 118 -64 199zM728 277q-16 -62 -66 -138q-57 -86 -116 -148q-1 -1 -6.5 -7.5t-11.5 -12.5t-15.5 -15t-20 -16.5t-23 -16t-26.5 -13.5t-29.5 -8.5t-32.5 -3t-34 5.5q-35 11 -52 56t-2 78q13 32 29 53t34 37.5t25 26.5q15 20 25 50.5t8 60.5q-1 15 -9.5 42.5t-15 49.5
t-8.5 53t9 53q16 37 37 59t60 25q57 4 111 -21t84 -55q76 -74 46 -195zM426 741q-26 24 -58 21t-52 -32q-24 -33 -17 -77t39 -69q27 -20 57.5 -15t48.5 34q16 25 17 60q-2 47 -35 78zM419 628q-10 -17 -28 -21t-34 8q-20 14 -25 40t8 46q11 18 30.5 20.5t35.5 -11.5
q20 -17 22 -46q0 -20 -9 -36zM596 712q-10 24 -31.5 32t-44.5 -4q-28 -15 -38.5 -50t4.5 -63q10 -20 30.5 -26.5t40.5 3.5q33 17 43 57q5 29 -4 51zM573 666q-5 -22 -24 -31q-11 -6 -22 -2.5t-17 14.5q-9 16 -3 35.5t22 27.5q12 7 24 2.5t18 -17.5q5 -13 2 -29zM713 665
q-7 21 -25.5 29t-38.5 -1q-25 -12 -36 -41.5t0 -54.5q9 -18 26 -24.5t35 1.5q29 13 39 46q7 25 0 45zM690 626q-6 -18 -21 -24q-9 -5 -18 -1.5t-13 13.5q-6 13 -0.5 28t18.5 21q11 5 20.5 1t12.5 -15q4 -10 1 -23zM817 584q-4 22 -20.5 32t-37.5 4q-26 -7 -41 -34t-7 -53
q5 -18 20.5 -27t34.5 -4q30 8 45 39q10 24 6 43zM787 551q-7 -15 -22 -19q-10 -2 -17.5 2t-10.5 14q-3 12 4 25.5t20 16.5q10 3 18.5 -2t10.5 -15t-3 -22zM876 473q-1 20 -15.5 31.5t-34.5 8.5q-24 -5 -40.5 -28t-12.5 -47q3 -18 16 -28t31 -7q29 4 46 31q11 20 10 39z
M843 447q-8 -12 -21 -14q-8 -2 -14 2.5t-7 13.5q-2 11 5.5 21.5t18.5 12.5q9 1 15.5 -4t7.5 -14q0 -9 -5 -18z" />
    <glyph glyph-name="uniE65C" unicode="&#xe65c;" 
d="M535 -211q-13 0 -34 17.5t-45.5 47.5t-46 58t-44 61.5t-29.5 44.5t-13 20q-24 38 -47 79.5t-51.5 100t-46 116.5t-17.5 102q0 102 50 188t136.5 136.5t187.5 50.5q115 0 209 -64q7 -4 8.5 -11.5t-3 -14t-12 -8t-13.5 3.5q-85 57 -189 57q-91 0 -169 -45.5t-123.5 -123
t-45.5 -169.5q0 -68 46.5 -174t106 -198t114 -161t72.5 -77q20 6 75 76.5t113.5 163.5t103.5 198.5t45 171.5q0 95 -49 176q-4 7 -2.5 14.5t8 11.5t14 2t11.5 -8q55 -90 55 -196q0 -44 -17 -102.5t-45.5 -116.5t-51 -99.5t-46.5 -79.5q-12 -19 -29.5 -45.5t-55.5 -80
t-73.5 -88.5t-56.5 -35zM535 280q-76 0 -130.5 54t-54.5 130.5t54.5 131t131 54.5t130.5 -54.5t54 -131t-54 -130.5t-131 -54zM535 613q-61 0 -104.5 -43.5t-43.5 -105t43.5 -105t105 -43.5t105 43.5t43.5 105t-43.5 105t-105.5 43.5zM535 613z" />
    <glyph glyph-name="uniE65D" unicode="&#xe65d;" 
d="M356 575q-6 0 -10 4t-4 10t4 10.5t10 4.5h308q6 0 10.5 -4.5t4.5 -10.5t-4.5 -10t-10.5 -4h-308zM356 386q-6 0 -10 4t-4 10t4 10.5t10 4.5h308q6 0 10.5 -4.5t4.5 -10.5t-4.5 -10t-10.5 -4h-308zM356 197q-6 0 -10 4t-4 10t4 10t10 4h308q6 0 10.5 -4t4.5 -10t-4.5 -10
t-10.5 -4h-308zM447 776q-9 0 -15 6t-6 14t6 14.5t15 6.5h126q9 0 15 -6.5t6 -14.5t-6 -14t-15 -6h-126zM247 -42q-36 0 -62 26t-26 62v677q0 36 26 61.5t62 25.5h83q5 0 9 -4t4 -10t-4 -10t-9 -4h-1h-82q-24 0 -41.5 -17.5t-17.5 -41.5v-677q0 -24 17.5 -41.5t41.5 -17.5
h526q25 0 42.5 17.5t17.5 41.5v677q0 24 -17.5 41.5t-42.5 17.5h-82q-6 0 -10 4t-4 10t4 10t10 4h82q37 0 62.5 -25.5t25.5 -61.5v-677q0 -36 -25.5 -62t-62.5 -26h-526z" />
    <glyph glyph-name="uniE65E" unicode="&#xe65e;" 
d="M830 616q-87 86 -202.5 117t-231 0t-201.5 -117t-117 -201.5t0 -231t117 -202t201.5 -117t231 0t202 117t117 202t0 231t-116.5 201.5zM801 10q-79 -78 -184 -106t-210 0t-183.5 106.5t-106 183.5t0 210t106 183.5t183.5 106t210 0t183.5 -106t106.5 -183.5t0 -210
t-106 -184zM728 449l27 -27l-305 -304l-26 26zM477 144l-26 -26l-199 199l27 26zM477 144z" />
    <glyph glyph-name="uniE65F" unicode="&#xe65f;" 
d="M229 675l21 14l254 -368h16l254 368l22 -14l-245 -354h273v-26h-291l-7 -12v-128h298v-25h-298v-219h-27v218h-298v27h298v126l-8 13h-290v26h272z" />
    <glyph glyph-name="uniE660" unicode="&#xe660;" 
d="M839 488h-241v87h-290v-346h203v-87h328l-86 173zM222 618q-18 0 -31 -12.5t-13 -30.5v-659q0 -18 13 -30.5t31 -12.5t30.5 12.5t12.5 30.5v659q0 18 -12.5 30.5t-30.5 12.5z" />
    <glyph glyph-name="uniE661" unicode="&#xe661;" 
d="M697 260h-151v151q0 9 -6.5 15.5t-15.5 6.5t-15.5 -6.5t-6.5 -15.5v-172v-1q0 -9 7 -16q7 -6 15 -5h173q9 2 15.5 8t5.5 13q0 10 -6.5 16t-14.5 6zM724 515l25 26q6 6 6 15t-6 15.5t-15 6.5t-16 -7l-30 -30l-1 -1q-65 38 -142 43q1 0 1 1v0v43v0h43q5 0 10 3q10 5 11 17
v2v4q0 2 -1 4q-1 3 -3 5l-2 2l-2 2q-2 2 -5 3q-1 1 -3 1t-3 0.5t-2 0.5h-130q-18 0 -21 -18q-1 -2 -1 -4q0 -1 0.5 -2.5t0.5 -2.5t1 -3q1 -3 3 -5q1 -2 2 -2.5t2 -1.5q2 -2 5 -3q2 -1 3 -1q3 -1 5 -1h43v0v-43v0v-1q-76 -5 -141 -43l-1 1l-30 30q-7 7 -16 7t-15.5 -6.5
t-6 -15.5t6.5 -15l25 -26q-58 -45 -91 -112t-33 -143q0 -88 43 -163t118 -118t163 -43t162.5 43t118 118t43.5 163q0 76 -33 143t-91 112zM524 -21q-116 0 -198.5 82t-82.5 198.5t82.5 199t198.5 82.5t198.5 -82.5t82.5 -199t-82.5 -198.5t-198.5 -82z" />
    <glyph glyph-name="uniE662" unicode="&#xe662;" 
d="M512 -96l-15 16q-17 18 -43.5 47.5t-85.5 104t-104.5 142t-82.5 147.5t-37 136q0 99 49.5 184t134 134t184.5 49t184.5 -49t134 -134t49.5 -184q0 -56 -37 -136t-82 -147.5t-105 -142t-85.5 -103.5t-43.5 -48zM512 823q-89 0 -164 -43.5t-119 -119t-44 -163.5
q0 -46 28.5 -111t66.5 -124t89.5 -125.5t82.5 -103.5t60 -69q29 32 60 69t82.5 103.5t89.5 125.5t66.5 124t28.5 111q0 88 -44 163.5t-119 119t-164 43.5zM512 264q-96 0 -164.5 68t-68.5 164.5t68.5 164.5t164.5 68t164.5 -68t68.5 -164.5t-68.5 -164.5t-164.5 -68z
M512 688q-79 0 -135.5 -56t-56.5 -135.5t56.5 -135.5t135.5 -56t135.5 56t56.5 135.5t-56.5 135.5t-135.5 56z" />
    <glyph glyph-name="uniE663" unicode="&#xe663;" 
d="M512 -96l-15 16q-17 18 -43.5 47.5t-85.5 104t-104.5 142t-82.5 147.5t-37 136q0 99 49.5 184t134 134t184.5 49t184.5 -49t134 -134t49.5 -184q0 -56 -37 -136t-82 -147.5t-105 -142t-85.5 -103.5t-43.5 -48zM512 823q-89 0 -164 -43.5t-119 -119t-44 -163.5
q0 -46 28.5 -111t66.5 -124t89.5 -125.5t82.5 -103.5t60 -69q29 32 60 69t82.5 103.5t89.5 125.5t66.5 124t28.5 111q0 88 -44 163.5t-119 119t-164 43.5zM512 264q-96 0 -164.5 68t-68.5 164.5t68.5 164.5t164.5 68t164.5 -68t68.5 -164.5t-68.5 -164.5t-164.5 -68z" />
    <glyph glyph-name="uniE664" unicode="&#xe664;" 
d="M940 375l3 14l80 288q3 12 -4 20.5t-18 8.5h-643q-6 0 -12.5 -5t-6.5 -14q0 -19 19 -19h621l-30 -121l-571 -1q-20 0 -20 -19t20 -19h563l-32 -122h-581l-112 414q-5 22 -30 22h-167q-19 0 -19 -19.5t19 -19.5h160l156 -578q0 -2 1.5 -5t8 -7.5t17.5 -4.5h566q19 0 19 19
t-19 19h-557l-33 122h567q12 0 21 6.5t11 13.5zM434 145q-41 0 -70 -29t-29 -70t29 -70.5t70 -29.5t70 29.5t29 70.5t-29 70t-70 29zM434 -19q-27 0 -45.5 19t-18.5 45.5t18.5 45.5t45.5 19t46 -19t19 -45.5t-19 -45.5t-46 -19zM835.5 145q-41.5 0 -70.5 -29t-29 -70
t29 -70.5t70.5 -29.5t70.5 29.5t29 70.5t-29 70t-70.5 29zM835.5 -19q-26.5 0 -45.5 19t-19 45.5t19 45.5t45.5 19t45.5 -19t19 -45.5t-19 -45.5t-45.5 -19z" />
    <glyph glyph-name="uniE665" unicode="&#xe665;" 
d="M940 375l3 14l80 288q3 12 -4 20.5t-18 8.5h-759l-26 94q-5 22 -30 22h-167q-19 0 -19 -19.5t19 -19.5h160l156 -578q0 -2 1.5 -5t8 -7.5t17.5 -4.5h566q19 0 19 19t-19 19h-557l-33 122h567q12 0 21 6.5t11 13.5zM434 145q-41 0 -70 -29t-29 -70t29 -70.5t70 -29.5
t70 29.5t29 70.5t-29 70t-70 29zM835.5 145q-41.5 0 -70.5 -29t-29 -70t29 -70.5t70.5 -29.5t70.5 29.5t29 70.5t-29 70t-70.5 29z" />
    <glyph glyph-name="uniE666" unicode="&#xe666;" 
d="M915 479q-9 0 -16 -6.5t-7 -15.5v-397q0 -18 -13 -31.5t-31 -13.5h-672q-18 0 -31 13.5t-13 31.5v648q0 18 13 31t31 13h433q9 0 15.5 7t6.5 16t-6.5 15.5t-15.5 6.5h-437q-35 0 -60 -25t-25 -60v-656q0 -36 25 -60.5t60 -24.5h680q35 0 60 24.5t25 60.5v401
q0 9 -6.5 15.5t-15.5 6.5v0zM914 734l-40 41q-21 21 -49.5 22.5t-47.5 -17.5l-426 -426l143 -142l426 425q19 19 17 47.5t-23 49.5zM491 272l-79 79l317 317l78 -80zM888 669l-47 -47l-79 80l47 46q7 7 18 6.5t19 -8.5l40 -40q8 -8 8.5 -19t-6.5 -18zM351 353l-44 -160
q-3 -11 6 -20q8 -8 19 -5l161 44l-33 33l-104 -29l28 105l-33 32v0z" />
    <glyph glyph-name="uniE667" unicode="&#xe667;" 
d="M915 479q-9 0 -16 -6.5t-7 -15.5v-397q0 -18 -13 -31.5t-31 -13.5h-672q-18 0 -31 13.5t-13 31.5v648q0 18 13 31t31 13h433q9 0 15.5 7t6.5 16t-6.5 15.5t-15.5 6.5h-437q-35 0 -60 -25t-25 -60v-656q0 -36 25 -60.5t60 -24.5h680q35 0 60 24.5t25 60.5v401
q0 9 -6.5 15.5t-15.5 6.5v0zM494 212l426 425q19 19 17 47.5t-23 49.5l-40 41q-21 21 -49.5 22.5t-47.5 -17.5l-426 -426l143 -142v0zM351 353l-44 -160q-3 -11 6 -20q8 -8 19 -5l161 44l-33 33l-104 -29l28 105l-33 32v0z" />
    <glyph glyph-name="uniE668" unicode="&#xe668;" horiz-adv-x="1025" 
d="M1016 377l-504 472l-504 -471q-8 -7 -8 -17t6.5 -17.5t17 -7.5t17.5 7l471 439l471 -441q7 -6 17 -6t17 7q7 8 7 18t-8 17zM862 367q-10 0 -17 -7t-7 -17v-375h-196v261h-260v-261h-196v375q0 10 -7 17t-17.5 7t-17.5 -7t-7 -17v-424h294v261h162v-261h294v424
q0 10 -7 17t-18 7zM691 718h147v-131q0 -10 7 -17t17 -7t17.5 7t7.5 17v180h-196q-10 0 -17 -7.5t-7 -17.5t7 -17t17 -7z" />
    <glyph glyph-name="uniE669" unicode="&#xe669;" horiz-adv-x="1025" 
d="M691 718h147v-131q0 -10 7 -17t17 -7t17.5 7t7.5 17v180h-196q-10 0 -17 -7.5t-7 -17.5t7 -17t17 -7zM1016 377l-504 472l-504 -471q-8 -7 -8 -17t6.5 -17.5t17 -7.5t17.5 7l96 89v-513h294v261h162v-261h294v512l96 -90q7 -6 17 -6t17 7q7 8 7 18t-8 17z" />
    <glyph glyph-name="uniE66A" unicode="&#xe66a;" 
d="M922 -13q-9 67 -38 127q-6 11 -13 23q-28 48 -68 87q-9 9 -18 17q-66 58 -149 84q15 9 29 19q15 11 29 25q76 76 76 183t-76 182q-74 74 -179 76h-1h-2h-2h-1q-105 -2 -179 -76q-76 -75 -76 -182t76 -183q14 -14 29 -25q14 -10 29 -19q-83 -26 -149 -84q-9 -8 -18 -17
q-40 -39 -68 -87q-7 -12 -13 -23q-29 -60 -38 -127q-2 -10 4.5 -18.5t17.5 -10.5h4h3q17 4 20 22q17 122 106 212q51 52 117 81t138 29h1q71 -1 137 -30t117 -80q88 -90 106 -212q3 -18 20 -22h3h4q11 2 17.5 10.5t4.5 18.5v0zM511 345h-1q-72 1 -130 45.5t-76 112.5
q-1 2 -1 3q-5 22 -5 45.5t5 46.5q0 1 1 2v1q18 70 77 118t130 48h2q71 0 130 -48t77 -118v-1q1 -1 1 -2q5 -23 5 -46.5t-5 -45.5q0 -1 -1 -2v-1q-18 -68 -76 -112.5t-130 -45.5h-3v0z" />
    <glyph glyph-name="uniE66B" unicode="&#xe66b;" 
d="M922 -13q-9 67 -38 127q-6 11 -13 23q-28 48 -68 87q-9 9 -18 17q-66 58 -149 84q15 9 29 19q15 11 29 25q76 76 76 183t-76 182q-74 74 -179 76h-1h-2h-2h-1q-105 -2 -179 -76q-76 -75 -76 -182t76 -183q14 -14 29 -25q14 -10 29 -19q-83 -26 -149 -84q-9 -8 -18 -17
q-40 -39 -68 -87q-7 -12 -13 -23q-29 -60 -38 -127q-2 -10 4.5 -18.5t17.5 -10.5h4h3q17 4 20 22q17 122 106 212q51 52 117 81t138 29h1q71 -1 137 -30t117 -80q88 -90 106 -212q3 -18 20 -22h3h4q11 2 17.5 10.5t4.5 18.5v0zM511 345z" />
    <glyph glyph-name="uniE66C" unicode="&#xe66c;" horiz-adv-x="1030" 
d="M517 812q-104 0 -198.5 -40.5t-163 -109.5t-109.5 -163.5t-41 -198.5t41 -198.5t109.5 -163.5t163 -109.5t198.5 -40.5t198.5 40.5t163.5 109.5t109.5 163.5t40.5 198.5t-40.5 198.5t-109.5 163.5t-163.5 109.5t-198.5 40.5zM486 29l-35 -41l-41 36l-195 184l72 72
l153 -149l333 399l77 -66z" />
    <glyph glyph-name="uniE66D" unicode="&#xe66d;" 
d="M284 475l165 -193l365 369q20 13 42.5 -7t13.5 -38q-5 -8 -21 -25.5t-40.5 -44t-40.5 -44.5q-211 -216 -256 -262q-9 -9 -27.5 -24.5t-23.5 -20.5q-9 -9 -22.5 -9t-17.5 9q-5 5 -52 59t-91 106l-45 51q-32 53 -11 74q13 13 31.5 13t30.5 -13z" />
    <glyph glyph-name="uniE66E" unicode="&#xe66e;" 
d="M305 339q31 0 67 -8t51 -13t61 -24.5t49 -20.5q-63 -76 -117.5 -118t-110.5 -42q-30 0 -60.5 5.5t-61 17.5t-49.5 35t-19 54q0 35 30.5 62t72.5 39.5t87 12.5zM1023 805v-843q0 -37 -26 -63.5t-63 -26.5h-844q-37 0 -63.5 26.5t-26.5 63.5v843q0 37 26.5 63.5t63.5 26.5
h844q37 0 63 -26.5t26 -63.5zM1023 209q-20 5 -47 13t-68 21.5t-65.5 22t-82 28.5t-75.5 27q44 75 69 163l3 12l3 12q1 8 3 16.5t3 13.5h-204v51h256v51h-256v103h-103v-103h-255v-51h255v-51h-204v-51h382q-14 -71 -49 -133q-18 6 -58 16.5t-110 23.5t-117 13
q-33 0 -71 -12.5t-73 -34.5t-58 -58t-23 -77q0 -88 58.5 -135t166.5 -47q193 0 322 191q90 -39 229 -106t169 -80v161zM1023 209z" />
    <glyph glyph-name="uniE66F" unicode="&#xe66f;" 
d="M406 277q-27 -12 -40.5 -8.5t-17.5 14.5l-4 11l-67 156q-17 48 2 44q9 -1 20 -10q42 -32 73 -51q14 -8 31 -9.5t26 1.5l10 3l440 202q-62 77 -158.5 121.5t-208.5 44.5q-122 0 -225 -52.5t-163 -142t-60 -196.5q0 -91 45.5 -171t124.5 -135l-19 -106q0 -2 -0.5 -3.5
t-0.5 -7t2 -7t7 -3t15 3.5q25 12 108 67q80 -28 166 -28q122 0 225 52t163 142t60 196q0 92 -47 174q-463 -277 -507 -302v0z" />
    <glyph glyph-name="uniE670" unicode="&#xe670;" 
d="M996 485l-1 5l-63 -14l1 -5q11 -46 11 -95q0 -89 -35 -170t-94 -140t-140 -93.5t-170 -34.5t-170 34.5t-140 93.5t-94 140t-35 170t35 170.5t94 140t140 93.5t170 35q80 0 155.5 -28.5t135.5 -81.5l3 -4l43 49l-3 3q-69 61 -155.5 94t-178.5 33q-102 0 -196 -40
q-90 -38 -159.5 -107.5t-108.5 -160.5q-39 -93 -39 -195.5t39 -195.5q39 -91 108.5 -160.5t159.5 -107.5q94 -40 196 -40t196 40q90 38 159.5 107.5t108.5 160.5q39 93 39 195q0 56 -12 109zM965 591l-482 -480l-18 -18q-7 -7 -17.5 -7t-17.5 7l-18 18l-232 231q-8 8 -8 18
t8 18l18 18q7 7 17.5 7t17.5 -7l213 -216l465 465q8 7 18.5 7t17.5 -7l18 -18q7 -7 7 -17.5t-7 -18.5z" />
    <glyph glyph-name="uniE671" unicode="&#xe671;" 
d="M512 700q79 0 151 -30q70 -30 123.5 -83.5t83.5 -123.5q30 -72 30 -151t-30 -151q-30 -70 -83.5 -123.5t-123.5 -83.5q-72 -30 -151 -30t-151 30q-70 30 -123.5 83.5t-83.5 123.5q-30 72 -30 151t30 151q30 70 83.5 123.5t123.5 83.5q72 30 151 30zM512 760
q-122 0 -225 -60t-163 -163t-60 -225t60 -225t163 -163t225 -60t225 60t163 163t60 225t-60 225t-163 163t-225 60zM727 342h-185v185q0 12 -9 21t-21 9t-21 -9t-9 -21v-185h-185q-12 0 -21 -9t-9 -21t9 -21t21 -9h185v-185q0 -12 9 -21t21 -9t21 9t9 21v185h185q12 0 21 9
t9 21t-9 21t-21 9z" />
    <glyph glyph-name="uniE672" unicode="&#xe672;" 
d="M167 207l371 611q16 25 42 32t54 -7l185 -89q28 -14 35.5 -37t-7.5 -48l-371 -611l-242 -135q-26 -12 -43 -4t-19 34zM232 183l5 -189l180 100zM769 671q12 22 10.5 26.5t-24.5 16.5l-124 59q-22 12 -29 10t-19 -22l-67 -110l186 -90zM451 149l217 357l-185 90l-217 -358
q7 -4 39 -19.5t76 -36.5t70 -33z" />
  </font>
</defs>
</svg>
