<?xml version="1.0" encoding="utf-8"?>
<!-- Generator: Adobe Illustrator 16.0.0, SVG Export Plug-In . SVG Version: 6.00 Build 0)  -->
<!DOCTYPE svg PUBLIC "-//W3C//DTD SVG 1.1//EN" "http://www.w3.org/Graphics/SVG/1.1/DTD/svg11.dtd">
<svg version="1.1" id="图层_1" xmlns="http://www.w3.org/2000/svg" xmlns:xlink="http://www.w3.org/1999/xlink" x="0px" y="0px"
	 width="48px" height="48px" viewBox="0 0 48 48" enable-background="new 0 0 48 48" xml:space="preserve">
<circle fill="#14c682" cx="24" cy="24" r="6.4"/>
<path fill="#14c682" d="M18,4l-3.66,4H8c-2.21,0-4,1.79-4,4v24c0,2.21,1.79,4,4,4h32c2.21,0,4-1.79,4-4V12c0-2.21-1.79-4-4-4h-6.34
	L30,4H18z M24,34c-5.52,0-10-4.48-10-10c0-5.52,4.48-10,10-10c5.52,0,10,4.48,10,10C34,29.52,29.52,34,24,34z"/>
</svg>
